<svg width="71" height="41" viewBox="0 0 71 41" fill="none" xmlns="http://www.w3.org/2000/svg">
<path d="M41.0552 13.2224H47.4198V19.7286H50.6382C52.1429 19.7214 53.6364 19.4709 55.0611 18.9869C55.7546 18.7518 56.5294 18.4261 57.2108 18.0161C56.3123 16.8433 55.8541 15.363 55.7033 13.9007C55.5194 11.9154 55.9204 9.33007 57.265 7.77587L57.9344 7.00254L58.7333 7.64321C60.7413 9.2562 62.4296 11.5099 62.7281 14.0801C65.1446 13.3686 67.9832 13.5374 70.1147 14.7675L70.9891 15.2725L70.5293 16.171C68.7399 19.6834 64.9712 20.7733 61.2885 20.5803C55.7772 34.3058 43.7792 40.8045 29.2321 40.8045C21.7159 40.8045 14.8207 37.9946 10.8953 31.3271C10.6646 30.9125 10.4687 30.4799 10.2591 30.0548C8.93256 27.1197 8.49087 23.9043 8.78935 20.7085L8.8798 19.7467H14.3067V13.2269H20.6712V6.86234H33.4018V0.497803H41.0402V13.2284" fill="black"/>
<mask id="mask0_776_329" style="mask-type:luminance" maskUnits="userSpaceOnUse" x="9" y="1" width="61" height="39">
<path d="M21.1559 1.04883V13.8537H15.0319V20.2562H9.90432L9.84697 20.8129C9.52685 24.3009 10.1354 27.5183 11.5347 30.2691L12.0046 31.1126C12.283 31.6184 12.617 32.0932 12.9616 32.5567C13.3063 33.0202 13.431 33.2758 13.6492 33.5833C17.3479 37.7377 22.8623 39.742 29.2286 39.742C43.3274 39.742 55.293 33.4959 60.5884 19.4645C64.3456 19.8498 67.9496 18.8866 69.592 15.6807C66.9753 14.1708 63.6132 14.6549 61.676 15.6286L66.8083 1.04883L46.7658 13.8537H40.3633V1.04883H21.1559Z" fill="white"/>
</mask>
<g mask="url(#mask0_776_329)">
<path d="M34.4786 1.55273H39.9953V7.06943H34.4786V1.55273Z" fill="white"/>
<path d="M35.1556 6.60976V2.01196ZM35.983 6.60949V2.01196ZM36.8186 6.60949V2.01196ZM37.6545 6.60949V2.01196ZM38.4905 6.60949V2.01196ZM39.3172 6.60949V2.01196Z" fill="black"/>
<path d="M35.1556 6.60976V2.01196M35.983 6.60949V2.01196M36.8186 6.60949V2.01196M37.6545 6.60949V2.01196M38.4905 6.60949V2.01196M39.3172 6.60949V2.01196" stroke="black" stroke-width="0.39144"/>
<path d="M40.8438 7.07251H46.3605V1.55609H40.8438V7.07251Z" fill="white"/>
<path d="M41.5208 2.01255V6.61035ZM42.3481 2.01283V6.61035ZM43.1838 2.01283V6.61035ZM44.0197 2.01283V6.61035ZM44.8556 2.01283V6.61035ZM45.6824 2.01283V6.61035Z" fill="black"/>
<path d="M41.5208 2.01255V6.61035M42.3481 2.01283V6.61035M43.1838 2.01283V6.61035M44.0197 2.01283V6.61035M44.8556 2.01283V6.61035M45.6824 2.01283V6.61035" stroke="black" stroke-width="0.39144"/>
<path d="M9.01801 7.91504H14.5347V13.4315H9.01801V7.91504Z" fill="white"/>
<path d="M9.01801 14.283H14.5347V19.7997H9.01801V14.283Z" fill="white"/>
<path d="M9.69501 12.975V8.3772ZM10.5223 12.9747V8.3772ZM11.358 12.9747V8.3772ZM12.1939 12.9747V8.3772ZM13.0299 12.9747V8.3772ZM13.8566 12.9747V8.3772Z" fill="black"/>
<path d="M9.69501 12.975V8.3772M10.5223 12.9747V8.3772M11.358 12.9747V8.3772M12.1939 12.9747V8.3772M13.0299 12.9747V8.3772M13.8566 12.9747V8.3772" stroke="black" stroke-width="0.39144"/>
<path d="M9.69501 19.34V14.7422ZM10.5223 19.3397V14.7422ZM11.358 19.3397V14.7422ZM12.1939 19.3397V14.7422ZM13.0299 19.3397V14.7422ZM13.8566 19.3397V14.7422Z" fill="black"/>
<path d="M9.69501 19.34V14.7422M10.5223 19.3397V14.7422M11.358 19.3397V14.7422M12.1939 19.3397V14.7422M13.0299 19.3397V14.7422M13.8566 19.3397V14.7422" stroke="black" stroke-width="0.39144"/>
<path d="M15.3831 19.8027H20.8998V14.2863H15.3831V19.8027Z" fill="white"/>
<path d="M15.3831 13.4348H20.8998V7.91812H15.3831V13.4348Z" fill="white"/>
<path d="M16.0602 14.7428V19.3406ZM16.8875 14.7431V19.3406ZM17.7231 14.7431V19.3406ZM18.5591 14.7431V19.3406ZM19.395 14.7431V19.3406ZM20.2218 14.7431V19.3406Z" fill="black"/>
<path d="M16.0602 14.7428V19.3406M16.8875 14.7431V19.3406M17.7231 14.7431V19.3406M18.5591 14.7431V19.3406M19.395 14.7431V19.3406M20.2218 14.7431V19.3406" stroke="black" stroke-width="0.39144"/>
<path d="M16.0602 8.37778V12.9756ZM16.8875 8.37806V12.9756ZM17.7231 8.37806V12.9756ZM18.5591 8.37806V12.9756ZM19.395 8.37806V12.9756ZM20.2218 8.37806V12.9756Z" fill="black"/>
<path d="M16.0602 8.37778V12.9756M16.8875 8.37806V12.9756M17.7231 8.37806V12.9756M18.5591 8.37806V12.9756M19.395 8.37806V12.9756M20.2218 8.37806V12.9756" stroke="black" stroke-width="0.39144"/>
<path d="M21.7483 7.91504H27.265V13.4315H21.7483V7.91504Z" fill="white"/>
<path d="M21.7483 14.283H27.265V19.7997H21.7483V14.283Z" fill="white"/>
<path d="M22.4253 12.975V8.3772ZM23.2526 12.9747V8.3772ZM24.0883 12.9747V8.3772ZM24.9242 12.9747V8.3772ZM25.7602 12.9747V8.3772ZM26.5869 12.9747V8.3772Z" fill="black"/>
<path d="M22.4253 12.975V8.3772M23.2526 12.9747V8.3772M24.0883 12.9747V8.3772M24.9242 12.9747V8.3772M25.7602 12.9747V8.3772M26.5869 12.9747V8.3772" stroke="black" stroke-width="0.39144"/>
<path d="M22.4253 19.34V14.7422ZM23.2526 19.3397V14.7422ZM24.0883 19.3397V14.7422ZM24.9242 19.3397V14.7422ZM25.7602 19.3397V14.7422ZM26.5869 19.3397V14.7422Z" fill="black"/>
<path d="M22.4253 19.34V14.7422M23.2526 19.3397V14.7422M24.0883 19.3397V14.7422M24.9242 19.3397V14.7422M25.7602 19.3397V14.7422M26.5869 19.3397V14.7422" stroke="black" stroke-width="0.39144"/>
<path d="M28.1135 19.8027H33.6302V14.2863H28.1135V19.8027Z" fill="white"/>
<path d="M28.1135 13.4348H33.6302V7.91812H28.1135V13.4348Z" fill="white"/>
<path d="M28.7905 14.7428V19.3406ZM29.6178 14.7431V19.3406ZM30.4535 14.7431V19.3406ZM31.2894 14.7431V19.3406ZM32.1253 14.7431V19.3406ZM32.9521 14.7431V19.3406Z" fill="black"/>
<path d="M28.7905 14.7428V19.3406M29.6178 14.7431V19.3406M30.4535 14.7431V19.3406M31.2894 14.7431V19.3406M32.1253 14.7431V19.3406M32.9521 14.7431V19.3406" stroke="black" stroke-width="0.39144"/>
<path d="M28.7905 8.37778V12.9756ZM29.6178 8.37806V12.9756ZM30.4535 8.37806V12.9756ZM31.2894 8.37806V12.9756ZM32.1253 8.37806V12.9756ZM32.9521 8.37806V12.9756Z" fill="black"/>
<path d="M28.7905 8.37778V12.9756M29.6178 8.37806V12.9756M30.4535 8.37806V12.9756M31.2894 8.37806V12.9756M32.1253 8.37806V12.9756M32.9521 8.37806V12.9756" stroke="black" stroke-width="0.39144"/>
<path d="M34.4786 7.91504H39.9953V13.4315H34.4786V7.91504Z" fill="white"/>
<path d="M34.4786 14.283H39.9953V19.7997H34.4786V14.283Z" fill="white"/>
<path d="M35.1556 12.975V8.3772ZM35.983 12.9747V8.3772ZM36.8186 12.9747V8.3772ZM37.6545 12.9747V8.3772ZM38.4905 12.9747V8.3772ZM39.3172 12.9747V8.3772Z" fill="black"/>
<path d="M35.1556 12.975V8.3772M35.983 12.9747V8.3772M36.8186 12.9747V8.3772M37.6545 12.9747V8.3772M38.4905 12.9747V8.3772M39.3172 12.9747V8.3772" stroke="black" stroke-width="0.39144"/>
<path d="M35.1556 19.34V14.7422ZM35.983 19.3397V14.7422ZM36.8186 19.3397V14.7422ZM37.6545 19.3397V14.7422ZM38.4905 19.3397V14.7422ZM39.3172 19.3397V14.7422Z" fill="black"/>
<path d="M35.1556 19.34V14.7422M35.983 19.3397V14.7422M36.8186 19.3397V14.7422M37.6545 19.3397V14.7422M38.4905 19.3397V14.7422M39.3172 19.3397V14.7422" stroke="black" stroke-width="0.39144"/>
<path d="M40.8438 19.8027H46.3605V14.2863H40.8438V19.8027Z" fill="white"/>
<path d="M40.8438 13.4348H46.3605V7.91812H40.8438V13.4348Z" fill="white"/>
<path d="M41.5208 14.7428V19.3406ZM42.3481 14.7431V19.3406ZM43.1838 14.7431V19.3406ZM44.0197 14.7431V19.3406ZM44.8556 14.7431V19.3406ZM45.6824 14.7431V19.3406Z" fill="black"/>
<path d="M41.5208 14.7428V19.3406M42.3481 14.7431V19.3406M43.1838 14.7431V19.3406M44.0197 14.7431V19.3406M44.8556 14.7431V19.3406M45.6824 14.7431V19.3406" stroke="black" stroke-width="0.39144"/>
<path d="M41.5208 8.37778V12.9756ZM42.3481 8.37806V12.9756ZM43.1838 8.37806V12.9756ZM44.0197 8.37806V12.9756ZM44.8556 8.37806V12.9756ZM45.6824 8.37806V12.9756Z" fill="black"/>
<path d="M41.5208 8.37778V12.9756M42.3481 8.37806V12.9756M43.1838 8.37806V12.9756M44.0197 8.37806V12.9756M44.8556 8.37806V12.9756M45.6824 8.37806V12.9756" stroke="black" stroke-width="0.39144"/>
<path d="M61.678 15.6298C62.1047 12.313 59.6225 9.70749 58.0831 8.4707C56.3091 10.5217 56.0335 15.897 58.8166 18.1599C57.2633 19.5394 53.9906 20.7899 50.6393 20.7899H9.46451C9.13882 24.2881 9.46451 41.1338 9.46451 41.1338H69.8703L69.5956 15.6843C66.9789 14.1745 63.6151 14.6563 61.678 15.6298Z" fill="white"/>
<path d="M9.46451 25.2668V41.1338H69.8703V25.2668" fill="white"/>
<path d="M30.9648 39.7141C27.1957 37.9256 25.1269 35.494 23.9758 32.8401L12.5266 33.3395L18.3723 41.1338L30.9648 39.7141Z" fill="white"/>
<path d="M61.9369 15.5069V15.5152C56.1301 23.0033 47.8005 29.5394 38.8585 32.9744C30.8819 36.0387 23.9274 36.0532 19.1292 33.5924C18.6125 33.3007 18.1059 32.9767 17.5981 32.6705C14.0804 30.2119 12.0993 26.1455 12.2657 20.7878H9.46451V41.134H69.8703V14.4106H62.9111L61.9369 15.5069Z" fill="black" fill-opacity="0.085"/>
</g>
<path d="M12.7012 33.0698C16.6448 33.2853 20.8521 33.326 24.5228 32.1743" stroke="black" stroke-width="0.853355" stroke-linecap="round"/>
<path d="M28.4407 30.2657C28.4403 30.669 28.2799 31.0556 27.9948 31.3408C27.7096 31.626 27.323 31.7863 26.9197 31.7867C26.5161 31.7867 26.1291 31.6265 25.8436 31.3413C25.5581 31.0561 25.3975 30.6693 25.3971 30.2657C25.3971 29.8619 25.5575 29.4746 25.8431 29.1891C26.1286 28.9036 26.5159 28.7432 26.9197 28.7432C27.3232 28.7436 27.7101 28.9042 27.9953 29.1896C28.2805 29.4751 28.4407 29.8622 28.4407 30.2657Z" fill="white"/>
<path d="M27.3297 29.2514C27.1971 29.3268 27.1066 29.4715 27.1066 29.6373C27.1066 29.883 27.3056 30.082 27.5513 30.082C27.7201 30.082 27.8528 29.9886 27.9433 29.8499C27.9978 29.9823 28.026 30.1242 28.0262 30.2674C28.0262 30.8704 27.5377 31.3573 26.9363 31.3573C26.3348 31.3573 25.8464 30.8689 25.8464 30.2674C25.8464 29.666 26.3348 29.1775 26.9363 29.1775C27.0714 29.1774 27.2038 29.2024 27.3297 29.2514ZM-0.000717163 25.5882H70.7961C69.254 25.1963 65.9194 24.6838 66.4697 22.6487C63.6658 25.8928 56.9063 24.9099 55.2013 23.324C53.3019 26.0797 42.2416 25.032 41.4713 22.8718C39.0895 25.6666 31.7104 25.6666 29.3286 22.8718C28.5568 25.0184 17.498 26.0676 15.6106 23.324C13.8891 24.9099 7.12962 25.8943 4.32572 22.6487C4.87595 24.6687 1.53992 25.2114 -0.000717163 25.5882Z" fill="black"/>
</svg>
