<svg width="70" height="70" viewBox="0 0 70 70" fill="none" xmlns="http://www.w3.org/2000/svg">
<rect width="70" height="70" rx="20" fill="white"/>
<path d="M38.4757 27.3342C38.4757 27.9084 38.4757 29.7801 38.4757 32.4392H47.6285L46.6361 40.589H38.4757C38.4757 53.1576 38.4757 70 38.4757 70H27.644C27.644 70 27.644 53.3805 27.644 40.589H22V32.4392H27.644C27.644 29.2072 27.644 26.909 27.644 26.2691C27.644 23.2203 27.4141 21.7737 28.711 19.4112C30.0086 17.0488 33.6686 13.9262 39.999 14.0013C46.331 14.0792 49 14.6877 49 14.6877L47.6285 23.3734C47.6285 23.3734 43.5852 22.307 41.6005 22.687C39.6186 23.0672 38.4757 24.2867 38.4757 27.3342Z" fill="black"/>
</svg>
