<svg width="62" height="62" viewBox="0 0 62 62" fill="none" xmlns="http://www.w3.org/2000/svg">
<path d="M7.12789 61.2202H55.2985C58.7932 61.2202 61.6368 58.3767 61.6368 54.882C61.6395 -7.17212 61.6384 13.133 61.6386 6.70702C61.6386 3.21232 58.7951 0.368774 55.3004 0.368774L7.12974 0.368774C3.62696 0.368774 0.789642 3.22259 0.789642 6.71135L0.789642 54.882C0.789642 58.3767 3.63319 61.2202 7.12789 61.2202ZM55.2985 58.6849H7.12789C5.03082 58.6849 3.32494 56.9791 3.32494 54.882L3.32494 13.5014L23.291 13.5014C24.1687 13.5014 24.9975 13.0366 25.4549 12.2883L26.4249 10.7L35.9929 10.7006L36.9628 12.2883C37.4202 13.0366 38.249 13.5014 39.1261 13.5014H40.8827C41.7604 13.5014 42.5892 13.0366 43.0467 12.2883L44.016 10.7L53.597 10.7006L54.5669 12.2883C55.0243 13.0366 55.8531 13.5014 56.7308 13.5014H59.1015V54.882C59.1015 56.9791 57.3956 58.6849 55.2985 58.6849ZM3.3268 6.70702C3.3268 4.60825 5.03605 2.9084 7.12789 2.9084L55.2985 2.9084C57.3956 2.9084 59.1015 4.61428 59.1015 6.71135V10.9661H56.7308L55.7609 9.37849C55.3035 8.63015 54.4741 8.16469 53.597 8.16469H44.016C43.1389 8.16469 42.3101 8.63015 41.8527 9.37849L40.8827 10.9661H39.1267L38.1568 9.37849C37.6994 8.63015 36.87 8.16469 35.9929 8.16469H26.4249C25.5478 8.16469 24.7184 8.63015 24.261 9.37849L23.291 10.9661L3.3268 10.9661V6.70702Z" fill="white"/>
<path d="M10.4462 5.67267H9.94479C9.24473 5.67267 8.67714 6.24026 8.67714 6.94032C8.67714 7.64037 9.24473 8.20797 9.94479 8.20797H10.4462C11.1462 8.20797 11.7138 7.64037 11.7138 6.94032C11.7138 6.24026 11.1462 5.67267 10.4462 5.67267Z" fill="white"/>
<path d="M15.4041 5.67273H14.9021C14.2021 5.67273 13.6345 6.24032 13.6345 6.94038C13.6345 7.64043 14.2021 8.20803 14.9021 8.20803H15.4041C16.1041 8.20803 16.6717 7.64043 16.6717 6.94038C16.6717 6.24032 16.1041 5.67273 15.4041 5.67273Z" fill="white"/>
<path d="M20.3614 5.67273H19.8601C19.16 5.67273 18.5924 6.24032 18.5924 6.94038C18.5924 7.64043 19.16 8.20803 19.8601 8.20803H20.3614C21.0615 8.20803 21.6291 7.64043 21.6291 6.94038C21.6291 6.24032 21.0615 5.67273 20.3614 5.67273Z" fill="white"/>
<path d="M46.8433 16.5096C35.911 16.5096 26.5172 16.5096 15.5848 16.5096C13.4054 16.5096 11.632 18.283 11.632 20.463L11.632 51.7209C11.632 53.901 13.4054 55.6743 15.5848 55.6743L46.8433 55.6743C49.0227 55.6743 50.7961 53.901 50.7961 51.7209C50.7961 40.7887 50.7961 31.3952 50.7961 20.463C50.7961 18.283 49.0227 16.5096 46.8433 16.5096ZM31.7684 25.3355C32.2047 25.1232 32.482 24.6807 32.482 24.1954V19.0449H46.8433C47.6251 19.0449 48.2608 19.6812 48.2608 20.463V34.8243H44.9598C45.4351 31.9728 43.2297 29.3997 40.3714 29.3997C37.515 29.3997 35.3074 31.971 35.783 34.8243H32.482V29.5662C32.482 29.0809 32.2047 28.6383 31.7684 28.426C31.3345 28.215 30.8133 28.2701 30.4308 28.5696C30.0755 28.8488 29.6403 28.9967 29.173 28.9967C28.0063 28.9967 27.0574 28.0478 27.0574 26.8811C27.0574 25.7143 28.0063 24.7648 29.173 24.7648C29.6403 24.7648 30.0755 24.9128 30.4308 25.1919C30.8133 25.4915 31.3338 25.5472 31.7684 25.3355ZM14.1673 20.463C14.1673 19.6812 14.803 19.0449 15.5848 19.0449H29.9467V22.2951C27.1133 21.8126 24.5221 24.0114 24.5221 26.8811C24.5221 29.7553 27.1185 31.9481 29.9467 31.4664L29.9467 34.8243H24.7424C24.2572 34.8243 23.8146 35.1016 23.6023 35.538C23.39 35.9744 23.4457 36.4937 23.7459 36.8756C24.0294 37.2358 24.173 37.6592 24.173 38.1327C24.173 39.2995 23.2235 40.249 22.0567 40.249C20.89 40.249 19.9411 39.2995 19.9411 38.1327C19.9411 37.6592 20.0847 37.2358 20.3682 36.8756C20.6684 36.4937 20.7241 35.9744 20.5118 35.538C20.2995 35.1016 19.8569 34.8243 19.3716 34.8243H14.1673L14.1673 20.463ZM30.6604 46.7946C30.224 47.0069 29.9467 47.4494 29.9467 47.9347V53.139H15.5848C14.803 53.139 14.1673 52.5027 14.1673 51.7209L14.1673 37.3596H17.4689C16.9927 40.2171 19.2046 42.7843 22.0567 42.7843C24.9132 42.7843 27.1207 40.213 26.6451 37.3596H29.9467V42.5639C29.9467 43.0492 30.224 43.4918 30.6604 43.7041C31.0955 43.9157 31.6161 43.8613 31.998 43.5605C32.3533 43.2813 32.7884 43.1334 33.2551 43.1334C34.4219 43.1334 35.3708 44.0822 35.3708 45.249C35.3708 46.4158 34.4219 47.3653 33.2551 47.3653C32.7884 47.3653 32.3533 47.2173 31.998 46.9382C31.6155 46.638 31.0949 46.5829 30.6604 46.7946ZM48.2608 51.7209C48.2608 52.5027 47.6251 53.139 46.8433 53.139L32.482 53.139V49.8349C35.3095 50.3165 37.9061 48.1239 37.9061 45.249C37.9061 42.3695 35.305 40.1829 32.482 40.6637V37.3596H37.6863C38.1716 37.3596 38.6142 37.0823 38.8265 36.6459C39.0388 36.2096 38.9831 35.6903 38.6829 35.3084C38.3994 34.9475 38.2551 34.5241 38.2551 34.0512C38.2551 32.8845 39.2046 31.935 40.3714 31.935C41.5382 31.935 42.4877 32.8845 42.4877 34.0512C42.4877 34.5241 42.3434 34.9475 42.06 35.3096C41.7604 35.6909 41.7047 36.2102 41.917 36.6466C42.1293 37.0829 42.5718 37.3596 43.0571 37.3596H48.2608L48.2608 51.7209Z" fill="white"/>
</svg>
