<svg width="72" height="59" viewBox="0 0 72 59" fill="none" xmlns="http://www.w3.org/2000/svg">
<path d="M24.0614 45.6008C45.265 61.2046 68.8717 30.5709 48.4017 14.0448C27.1905 -1.46688 3.65433 29.0916 24.0614 45.6008ZM27.0708 31.3735C27.1439 34.509 27.6 37.6238 28.4289 40.6486C27.2633 41.1552 26.1488 41.7719 25.1003 42.4902C21.8597 39.6464 19.8343 35.6671 19.4423 31.3735H27.0708ZM27.8381 15.2173C28.6912 14.7349 29.5865 14.3311 30.5129 14.0111C30.1139 14.6851 29.7601 15.3849 29.454 16.1058C28.8755 15.8584 28.3118 15.5777 27.7659 15.2648L27.8381 15.2173ZM44.7186 15.2648C44.1727 15.5777 43.6091 15.8584 43.0306 16.1058C42.7245 15.3849 42.3707 14.6851 41.9717 14.0111C42.9263 14.3385 43.8471 14.7568 44.7217 15.2602L44.7186 15.2648ZM44.6419 44.4606C43.7888 44.943 42.8935 45.3467 41.9671 45.6668C42.3661 44.9928 42.7199 44.293 43.026 43.5721C43.6045 43.8194 44.1681 44.1002 44.714 44.413L44.6419 44.4606ZM27.7613 44.413C28.3072 44.1002 28.8709 43.8194 29.4494 43.5721C29.7555 44.293 30.1093 44.9928 30.5083 45.6668C29.5569 45.3388 28.6391 44.9205 27.7675 44.4176L27.7613 44.413ZM34.71 46.0688C33.6871 45.1059 32.8945 43.9246 32.3912 42.6129C33.1549 42.4389 33.9297 42.3174 34.71 42.2492V46.0688ZM37.7792 46.0688V42.2492C38.5595 42.3174 39.3343 42.4389 40.098 42.6129C39.5947 43.9246 38.8021 45.1059 37.7792 46.0688ZM37.7792 39.1094V31.3735H42.3508C42.2695 34.1736 41.8621 36.9546 41.1369 39.6604C40.0357 39.3799 38.9123 39.1956 37.7792 39.1094ZM37.7792 28.3043V20.5684C38.9121 20.4843 40.0355 20.302 41.1369 20.0236C41.8624 22.7293 42.2697 25.5104 42.3508 28.3105L37.7792 28.3043ZM37.7792 17.4286V13.609C38.8021 14.572 39.5947 15.7533 40.098 17.0649C39.3343 17.239 38.5595 17.3605 37.7792 17.4286ZM34.71 13.609V17.4286C33.9297 17.3605 33.1549 17.239 32.3912 17.0649C32.8945 15.7533 33.6871 14.572 34.71 13.609ZM34.71 20.5684V28.3043H30.1384C30.2194 25.5042 30.6268 22.7232 31.3523 20.0175C32.4535 20.2979 33.5769 20.4822 34.71 20.5684ZM34.71 31.3735V39.1094C33.5771 39.1936 32.4537 39.3759 31.3523 39.6542C30.6271 36.9485 30.2197 34.1674 30.1384 31.3674L34.71 31.3735ZM47.3889 42.484C46.3404 41.7657 45.2258 41.1491 44.0603 40.6425C44.8887 37.6197 45.3448 34.507 45.4184 31.3735H53.0469C52.6533 35.665 50.6281 39.6418 47.3889 42.484ZM53.0469 28.3043H45.4184C45.3453 25.1688 44.8892 22.054 44.0603 19.0292C45.2258 18.5226 46.3404 17.906 47.3889 17.1877C50.6295 20.0314 52.6549 24.0107 53.0469 28.3043ZM25.1003 17.1938C26.1488 17.9121 27.2633 18.5288 28.4289 19.0354C27.6005 22.0582 27.1444 25.1709 27.0708 28.3043H19.4423C19.8359 24.0129 21.8611 20.0361 25.1003 17.1938ZM56.8665 48.2863C58.5024 50.7831 54.0751 52.5571 52.5528 54.015C35.8349 66.0984 9.90322 54.8621 7.47395 34.3338L3.76482 39.8982C3.65298 40.0659 3.5092 40.2099 3.3417 40.322C3.1742 40.4341 2.98626 40.5121 2.78862 40.5516C2.59097 40.5911 2.38748 40.5912 2.18977 40.552C1.99206 40.5129 1.804 40.4352 1.63633 40.3233C1.46866 40.2115 1.32467 40.0677 1.21256 39.9002C1.10046 39.7327 1.02244 39.5447 0.982968 39.3471C0.943495 39.1495 0.94334 38.946 0.982508 38.7483C1.02168 38.5505 1.0994 38.3625 1.21125 38.1948L7.34964 28.9872C7.49387 28.7827 7.68513 28.6158 7.90732 28.5005C8.12952 28.3853 8.37614 28.3252 8.62643 28.3252C8.87672 28.3252 9.12334 28.3853 9.34554 28.5005C9.56773 28.6158 9.75899 28.7827 9.90322 28.9872L16.0416 38.1948C16.1535 38.3625 16.2312 38.5505 16.2704 38.7482C16.3096 38.946 16.3094 39.1495 16.27 39.3471C16.2305 39.5448 16.1525 39.7327 16.0404 39.9002C15.9282 40.0677 15.7842 40.2115 15.6165 40.3233C13.6077 41.7766 11.9166 37.0577 10.9421 36.0801C14.9413 55.3363 41.2873 62.6456 54.6951 48.2863C54.9827 47.9996 55.3723 47.8386 55.7785 47.8386C56.1847 47.8386 56.5743 47.9996 56.8619 48.2863H56.8665ZM63.1108 41.195C62.0182 43.0365 61.3905 46.2392 59.1485 46.8223C58.8699 46.8196 58.5973 46.7414 58.3595 46.5963C58.1217 46.4511 57.9276 46.2443 57.7978 45.9978C57.668 45.7513 57.6074 45.4742 57.6223 45.196C57.6372 44.9178 57.7271 44.6489 57.8824 44.4176C59.5076 42.9674 59.5797 38.5662 62.3005 39.1708C62.4873 39.2498 62.6565 39.3649 62.7985 39.5096C62.9404 39.6544 63.0523 39.8258 63.1276 40.014C63.203 40.2022 63.2403 40.4034 63.2374 40.6061C63.2345 40.8089 63.1915 41.009 63.1108 41.195ZM9.37838 18.4829C10.5293 16.7258 11.4194 11.9731 14.2001 13.1118C16.1951 15.07 12.5427 17.51 12.2051 19.6753C12.1264 19.8609 12.0119 20.0292 11.8682 20.1705C11.7245 20.3119 11.5543 20.4236 11.3674 20.4992C11.1805 20.5748 10.9806 20.6128 10.779 20.6111C10.5774 20.6095 10.3781 20.5681 10.1925 20.4894C10.0069 20.4107 9.83859 20.2962 9.69723 20.1525C9.55587 20.0087 9.4442 19.8386 9.36861 19.6517C9.29301 19.4648 9.25496 19.2648 9.25664 19.0632C9.25832 18.8617 9.29969 18.6624 9.37838 18.4768V18.4829ZM71.2825 23.013C70.5828 23.5885 65.095 33.5342 63.8674 32.9081C62.6243 33.522 57.1796 23.6299 56.4522 23.0176C56.2263 22.679 56.1442 22.2645 56.2239 21.8654C56.3036 21.4662 56.5386 21.115 56.8773 20.8891C57.2159 20.6633 57.6304 20.5811 58.0296 20.6609C58.4287 20.7406 58.7799 20.9756 59.0058 21.3142L61.9875 25.7861C59.5828 5.28535 31.848 -3.70279 17.8003 11.39C16.4022 12.8202 14.2154 10.6104 15.6257 9.22313C32.0459 -8.05798 63.1891 2.82386 65.2101 26.5933L68.729 21.3142C68.9549 20.9756 69.306 20.7406 69.7052 20.6609C70.1043 20.5811 70.5188 20.6633 70.8575 20.8891C71.1961 21.115 71.4311 21.4662 71.5108 21.8654C71.5905 22.2645 71.5084 22.679 71.2825 23.0176V23.013Z" fill="white"/>
</svg>
