<svg width="116" height="116" viewBox="0 0 116 116" fill="none" xmlns="http://www.w3.org/2000/svg">
<path d="M91.2664 28.2698C90.8003 27.7933 90.2354 27.5549 89.5727 27.5549C88.9132 27.5549 88.3442 27.7879 87.8659 28.2541C87.3872 28.7204 87.148 29.2852 87.148 29.9483C87.148 30.5908 87.386 31.1502 87.863 31.6267C88.3394 32.1036 88.909 32.3416 89.5727 32.3416C90.2354 32.3416 90.8005 32.1036 91.2664 31.6267C91.7328 31.1505 91.9658 30.5908 91.9658 29.9483C91.9658 29.3064 91.7328 28.7467 91.2664 28.2698Z" fill="white"/>
<path d="M94.7945 10.8942C93.5714 9.92033 91.9759 9.43329 90.0075 9.43329C88.0805 9.43329 86.5778 9.8792 85.5006 10.7699C84.4227 11.661 83.8842 12.6036 83.8842 13.5984C83.8842 14.1578 84.075 14.5932 84.4573 14.904C84.8389 15.2148 85.2673 15.3701 85.7424 15.3701C86.1139 15.3701 86.4239 15.2555 86.6713 15.0263C86.919 14.797 87.1152 14.5439 87.2599 14.2668C87.4047 13.9899 87.7038 13.7364 88.1585 13.5072C88.6125 13.2779 89.1906 13.1633 89.8929 13.1633C90.7184 13.1633 91.3898 13.342 91.906 13.6991C92.4223 14.0564 92.6805 14.5718 92.6805 15.2454C92.6805 15.6331 92.5663 16.0156 92.3387 16.3936C92.1105 16.7715 91.9036 17.0522 91.717 17.2358C91.5305 17.4194 91.1989 17.6954 90.7225 18.0624C90.2455 18.4297 89.9763 18.6436 89.9143 18.705C88.5255 19.889 87.8317 21.4402 87.8317 23.3587C87.8317 24.1553 87.956 24.6962 88.2046 24.9819C88.4534 25.2673 88.8986 25.4103 89.5412 25.4103C90.7636 25.4103 91.3749 24.9857 91.3749 24.1359C91.3749 23.4729 91.4006 22.9809 91.4525 22.6595C91.5039 22.3386 91.6592 21.9655 91.9188 21.5405C92.1777 21.1159 92.5778 20.6857 93.1188 20.2506C95.4578 18.4477 96.6279 16.5516 96.6279 14.5624C96.6285 13.0911 96.017 11.8687 94.7945 10.8942Z" fill="white"/>
<path d="M108.897 0.420288H69.8065C65.9455 0.420288 62.8041 3.56143 62.8041 7.42268V34.1226C62.8041 37.9838 65.9455 41.125 69.8065 41.125H71.1618V47.2652C71.1618 48.4189 71.8504 49.4498 72.9164 49.8915C73.2704 50.038 73.6404 50.1092 74.0072 50.1092C74.7452 50.1092 75.4689 49.8204 76.0144 49.2752L84.1646 41.125H108.897C112.758 41.125 115.899 37.9838 115.899 34.1226V7.42268C115.899 3.56165 112.758 0.420288 108.897 0.420288ZM108.897 37.511H84.1165C83.1822 37.511 82.3037 37.8748 81.6427 38.5356L74.7758 45.4027V41.0097C74.7758 39.0806 73.2064 37.511 71.2773 37.511H69.8065C67.9382 37.511 66.4182 35.991 66.4182 34.1226V7.4229C66.4182 5.55453 67.9382 4.03453 69.8065 4.03453H108.897C110.765 4.03453 112.285 5.55453 112.285 7.4229V34.1228C112.285 35.991 110.765 37.511 108.897 37.511Z" fill="white"/>
<path d="M63.1368 90.4134L54.7477 88.7707C53.7242 88.5703 52.8124 88.185 52.0543 87.6708C51.9961 87.6256 51.9356 87.5852 51.8731 87.5481C50.5687 86.5956 49.7757 85.2381 49.7757 83.7572V80.2722C50.968 79.346 52.0455 78.2806 52.985 77.0996C57.015 77.0209 60.2836 73.7876 60.4189 69.7715C62.3673 69.1204 63.7771 67.2821 63.7771 65.1178V55.8973C63.7771 53.7992 62.4515 52.0095 60.5962 51.3085C61.4404 50.9755 61.918 50.0549 61.6761 49.1581C59.9539 42.7785 57.1764 37.7023 53.4214 34.0703C49.0952 29.8849 44.301 27.6286 39.1712 27.3634C38.8413 27.3468 31.0163 27.0124 24.1922 32.8195C22.2334 34.4863 20.4995 36.5796 19.037 39.0407C19.0359 39.0424 19.0345 39.044 19.0334 39.0458C19.0291 39.0526 19.0255 39.0595 19.0213 39.0663C19.0181 39.0719 19.0145 39.0771 19.0114 39.0825C19.0107 39.0838 19.0103 39.0852 19.0094 39.0863C17.6489 41.2756 16.6937 43.6607 16.1719 46.1765C15.8165 47.8889 15.6704 49.6317 15.7322 51.3764C13.9727 52.1233 12.7354 53.8685 12.7354 55.8973V65.1178C12.7354 67.8245 14.9375 70.0264 17.644 70.0264H20.014C21.127 74.4207 23.7914 78.2004 27.3863 80.7543V83.7572C27.3863 85.2383 26.593 86.5963 25.288 87.5488C25.2265 87.5854 25.1667 87.6256 25.1089 87.6701C24.3506 88.1848 23.4383 88.5703 22.4144 88.7707L14.0252 90.4134C6.25353 91.9352 0.82576 97.7584 0.82576 104.575V113.59C0.82576 114.588 1.63464 115.397 2.63277 115.397H74.5293C75.5274 115.397 76.3363 114.588 76.3363 113.59V104.575C76.3363 97.7584 70.9083 91.9352 63.1368 90.4134ZM55.833 72.117C56.0933 71.4376 56.3176 70.7409 56.4985 70.0264H56.7745C56.6714 70.8207 56.3345 71.5405 55.833 72.117ZM60.1633 55.8969V65.1173C60.1633 65.8311 59.5826 66.4119 58.8688 66.4119H57.0737V65.4082V54.6023H58.8688C59.5826 54.6023 60.1633 55.1833 60.1633 55.8969ZM26.5341 35.5718C32.228 30.7266 38.924 30.9693 38.9849 30.9727C43.2168 31.1914 47.2284 33.1072 50.9089 36.6677C54.1883 39.8401 56.6372 44.3592 58.1869 50.1C58.2835 50.4583 58.4817 50.7617 58.7418 50.9887H56.9986C56.7772 50.241 56.0863 49.695 55.2667 49.695C54.908 49.695 54.5746 49.8009 54.2937 49.9809C54.2872 49.985 54.2818 49.987 54.2753 49.9913C52.3399 51.2613 47.7309 52.0412 45.2782 52.0412C39.2706 52.0412 33.4841 49.8951 28.5719 45.9758L22.8351 39.7918C23.933 38.1473 25.1725 36.7302 26.5341 35.5718ZM19.4391 65.4084V66.4121H17.644C16.9302 66.4121 16.3494 65.8314 16.3494 65.1176V55.8973C16.3494 55.1835 16.9302 54.6027 17.644 54.6027H19.4391V65.4084ZM20.8292 49.7449C20.597 49.7998 20.3826 49.8991 20.1947 50.0337C19.9104 50.1569 19.6236 50.2754 19.3321 50.3846C19.3463 49.2183 19.4724 48.0561 19.7101 46.9106C19.9641 45.6861 20.3462 44.5008 20.8418 43.3611C22.0172 44.8033 23.2722 46.1309 24.5963 47.3367C23.2567 48.4162 22.1132 49.0803 21.592 49.3604C21.3416 49.495 21.0865 49.6218 20.8292 49.7449ZM23.0531 65.4084V52.7957V52.6735C23.1363 52.6301 23.2205 52.5885 23.303 52.5442C23.9982 52.1707 25.6234 51.2238 27.445 49.6676C32.7433 53.5451 38.8903 55.6553 45.2782 55.6553C47.303 55.6553 50.6959 55.2172 53.4597 54.2951V65.4086C53.4597 68.3767 52.6015 71.1465 51.1251 73.4894H40.0159C39.0177 73.4894 38.2088 74.2985 38.2088 75.2964C38.2088 76.2943 39.0177 77.1034 40.0159 77.1034H47.9588C45.3243 79.2929 41.9415 80.612 38.256 80.612C29.873 80.612 23.0531 73.7917 23.0531 65.4084ZM72.7223 111.784H62.7253V108.714C62.7253 107.716 61.9164 106.907 60.9183 106.907C59.9202 106.907 59.1113 107.716 59.1113 108.714V111.784H18.0652V108.714C18.0652 107.716 17.2563 106.907 16.2582 106.907C15.26 106.907 14.4512 107.716 14.4512 108.714V111.784H4.43978V104.575C4.43978 99.5101 8.66693 95.1452 14.7197 93.9603L23.1088 92.3176C24.1721 92.1094 25.1611 91.7631 26.0554 91.3055C27.1423 92.1375 28.3085 92.8603 29.5368 93.4609C29.7923 93.5856 30.0627 93.6447 30.329 93.6447C30.9977 93.6447 31.6405 93.2721 31.954 92.6311C32.392 91.7343 32.0205 90.6524 31.1242 90.2139C30.3951 89.8576 29.6932 89.4472 29.0223 88.9901C30.2758 87.5222 31.0004 85.708 31.0004 83.7574V82.7694C33.2346 83.7066 35.6858 84.2262 38.2565 84.2262C41.0792 84.2262 43.7564 83.5974 46.1617 82.479V83.7574C46.1617 85.7074 46.8856 87.5209 48.1382 88.9883C45.333 90.8953 42.0078 91.9314 38.581 91.9314C37.8854 91.9314 37.186 91.8892 36.5016 91.8058C35.51 91.6851 34.6099 92.3904 34.4892 93.3809C34.3685 94.3716 35.074 95.2724 36.0645 95.3931C36.8934 95.4942 37.7402 95.5452 38.581 95.5452C43.1226 95.5452 47.5172 94.0445 51.1018 91.3028C51.9974 91.7617 52.9879 92.109 54.0532 92.3176L62.4423 93.9603C68.4951 95.1454 72.7223 99.5103 72.7223 104.575V111.784Z" fill="white"/>
<path d="M38.2788 73.3232C40.4789 73.3232 42.679 72.4858 44.3541 70.8107C45.0124 70.1527 45.0124 69.0853 44.3541 68.427C43.6958 67.7687 42.6286 67.7687 41.9701 68.427C39.9343 70.4628 36.6226 70.4626 34.5872 68.427C33.9289 67.7687 32.8618 67.7687 32.2033 68.427C31.545 69.0851 31.545 70.1524 32.2033 70.8107C33.8783 72.4858 36.0784 73.3232 38.2788 73.3232Z" fill="white"/>
<path d="M31.5112 59.8237C32.4422 59.8237 33.1969 59.069 33.1969 58.138C33.1969 57.2071 32.4422 56.4524 31.5112 56.4524C30.5803 56.4524 29.8256 57.2071 29.8256 58.138C29.8256 59.069 30.5803 59.8237 31.5112 59.8237Z" fill="white"/>
<path d="M44.3311 59.8237C45.2621 59.8237 46.0167 59.069 46.0167 58.138C46.0167 57.2071 45.2621 56.4524 44.3311 56.4524C43.4002 56.4524 42.6455 57.2071 42.6455 58.138C42.6455 59.069 43.4002 59.8237 44.3311 59.8237Z" fill="white"/>
</svg>
