<svg width="57" height="57" viewBox="0 0 57 57" fill="none" xmlns="http://www.w3.org/2000/svg">
<path d="M52.6649 44.5475V18.8247C52.6649 17.2978 51.4227 16.0556 49.8958 16.0556C48.3689 16.0556 47.1267 17.2978 47.1267 18.8247V45.04C46.1349 45.6504 45.3409 46.5211 44.824 47.5617H31.0044V38.516C31.0044 36.9892 29.7622 35.7469 28.2353 35.7469C26.7085 35.7469 25.4662 36.9892 25.4662 38.516V47.5617H11.77C11.1463 46.3054 10.1217 45.303 8.85174 44.7073V30.9471H15.9283C17.4551 30.9471 18.6974 29.7049 18.6974 28.178C18.6974 26.6512 17.4551 25.4089 15.9283 25.4089H8.85174V12.5105C10.0748 11.9353 11.0762 10.9764 11.7057 9.77901H35.6196C37.1465 9.77901 38.3887 8.53674 38.3887 7.00988C38.3887 5.48302 37.1465 4.24075 35.6196 4.24075H11.8284C10.813 2.08146 8.63098 0.671753 6.20564 0.671753C2.77865 0.671753 -0.00946045 3.45975 -0.00946045 6.88685C-0.00946045 9.22521 1.27597 11.3204 3.31347 12.3874V44.8302C1.27608 45.8971 -0.00946045 47.9925 -0.00946045 50.3307C-0.00934747 53.7578 2.77865 56.5458 6.20575 56.5458C8.56874 56.5458 10.7283 55.1846 11.7692 53.0999H44.8248C45.8656 55.1846 48.0252 56.5458 50.388 56.5458C53.815 56.5458 56.6031 53.7578 56.6031 50.3307C56.6031 47.7553 55.0155 45.4716 52.6649 44.5475ZM12.3688 6.08687H35.6196C36.1287 6.08687 36.5426 6.50093 36.5426 7.00988C36.5426 7.51883 36.1285 7.93289 35.6196 7.93289H12.3308C12.3896 7.58888 12.4207 7.23978 12.4207 6.88674C12.4207 6.61842 12.4031 6.35146 12.3688 6.08687ZM15.9283 27.255C16.4373 27.255 16.8513 27.6691 16.8513 28.178C16.8513 28.6871 16.4372 29.101 15.9283 29.101H7.92873C7.41888 29.101 7.00573 29.5142 7.00573 30.024V44.1677C6.74114 44.1334 6.47418 44.1156 6.20575 44.1156C5.85281 44.1156 5.50361 44.1469 5.1596 44.2056V13.0119C5.50361 13.0707 5.8527 13.1018 6.20575 13.1018C6.47418 13.1018 6.74114 13.0841 7.00573 13.0498V26.3319C7.00573 26.8417 7.41888 27.2549 7.92873 27.2549L15.9283 27.255ZM1.83666 6.88685C1.83666 4.47777 3.79656 2.51788 6.20564 2.51788C8.06961 2.51788 9.72967 3.70197 10.3365 5.46427C10.4945 5.92328 10.5746 6.40196 10.5746 6.88685C10.5746 7.44653 10.4691 7.99333 10.2609 8.51233C9.78751 9.69123 8.82801 10.6046 7.6281 11.0177C7.16909 11.1757 6.69041 11.2558 6.20552 11.2558C5.64584 11.2558 5.09905 11.1503 4.58004 10.9421C4.58026 10.9422 4.57981 10.942 4.58004 10.9421C2.91388 10.2729 1.83666 8.68134 1.83666 6.88685ZM10.3012 51.8548C10.3012 51.8546 10.3012 51.8549 10.3012 51.8548C9.66753 53.5561 8.02171 54.6997 6.20564 54.6997C3.79656 54.6997 1.83666 52.7398 1.83666 50.3307C1.83666 48.5362 2.91332 46.9447 4.57959 46.2757C4.57947 46.2758 4.57981 46.2756 4.57959 46.2757C5.09859 46.0675 5.64596 45.9618 6.20564 45.9618C6.69052 45.9618 7.1692 46.0419 7.62822 46.1999C8.86914 46.6272 9.84332 47.5773 10.3012 48.8068C10.4828 49.2943 10.5748 49.807 10.5748 50.3308C10.5748 50.8547 10.4828 51.3673 10.3012 51.8548ZM44.2426 51.2537H12.3511C12.3966 50.9496 12.4208 50.6415 12.4208 50.3307C12.4208 50.0199 12.3966 49.7118 12.3511 49.4077H26.3893C26.8992 49.4077 27.3123 48.9946 27.3123 48.4847V38.516C27.3123 38.007 27.7264 37.593 28.2353 37.593C28.7444 37.593 29.1583 38.0071 29.1583 38.516V48.4847C29.1583 48.9946 29.5715 49.4077 30.0813 49.4077H44.2425C44.1971 49.7118 44.1728 50.0199 44.1728 50.3307C44.1728 50.6415 44.1972 50.9497 44.2426 51.2537ZM48.9728 18.8247C48.9728 18.3156 49.3868 17.9017 49.8958 17.9017C50.4049 17.9017 50.8188 18.3157 50.8188 18.8247V44.1314C50.6756 44.1215 50.532 44.1157 50.388 44.1157C49.9056 44.1157 49.4327 44.1699 48.9727 44.2773L48.9728 18.8247ZM50.388 54.6998C48.572 54.6998 46.9263 53.5566 46.2927 51.8553C46.2927 51.8554 46.2927 51.8552 46.2927 51.8553C46.1111 51.3678 46.0189 50.8547 46.0189 50.3308C46.0189 49.807 46.111 49.2943 46.2926 48.8068C46.6829 47.7583 47.452 46.9074 48.4582 46.4108C49.0619 46.1129 49.7113 45.9618 50.3879 45.9618C50.7655 45.9618 51.1418 46.0106 51.5061 46.1067C53.4203 46.6118 54.7569 48.3488 54.7569 50.3307C54.7571 52.7399 52.7972 54.6998 50.388 54.6998Z" fill="white"/>
<path d="M54.463 6.14365L49.5897 1.27025C49.4165 1.09728 49.1818 1.00001 48.9368 1.00001C48.692 1.00001 48.4573 1.0974 48.2841 1.27048L21.2222 28.3434C21.2176 28.348 21.2135 28.3533 21.2089 28.3582C21.1948 28.373 21.181 28.388 21.1678 28.4037C21.1633 28.4091 21.1585 28.4145 21.1541 28.42C21.1504 28.4245 21.1472 28.4293 21.1436 28.434C21.1334 28.4473 21.1234 28.4606 21.1139 28.4745C21.1073 28.484 21.101 28.4936 21.0949 28.5033C21.0918 28.5085 21.0885 28.5135 21.0854 28.5187C21.0794 28.5288 21.0735 28.539 21.0677 28.5494C21.0598 28.5636 21.0526 28.5781 21.0454 28.5926C21.0427 28.5981 21.0397 28.6035 21.0371 28.6091C21.034 28.6158 21.0312 28.6225 21.0284 28.6293C21.0206 28.6473 21.0136 28.6655 21.0071 28.684C21.0047 28.6909 21.0016 28.6973 20.9992 28.7042L18.637 35.7908L17.2704 37.1575C16.9099 37.5181 16.9099 38.1024 17.2704 38.4629C17.4507 38.6431 17.6869 38.7331 17.9231 38.7331C18.1593 38.7331 18.3956 38.6431 18.5759 38.4629L19.9203 37.1185L27.0402 34.7452C27.0476 34.7427 27.0544 34.7396 27.0615 34.7369C27.0792 34.7304 27.0969 34.7239 27.1142 34.7162C27.1212 34.7132 27.1282 34.7104 27.135 34.7071C27.1408 34.7044 27.1463 34.7013 27.1521 34.6986C27.1663 34.6917 27.1804 34.6845 27.1944 34.6768C27.2047 34.671 27.2151 34.6652 27.2252 34.659C27.2306 34.6558 27.2359 34.6525 27.2412 34.6491C27.2508 34.643 27.2604 34.6366 27.2699 34.6301C27.2835 34.6207 27.2966 34.6111 27.3096 34.6012C27.3145 34.5973 27.3196 34.5939 27.3245 34.59C27.3301 34.5855 27.3357 34.5806 27.3412 34.5759C27.3561 34.5634 27.3702 34.5504 27.3841 34.5371C27.3895 34.5319 27.3953 34.5274 27.4007 34.5221L39.5841 22.3387C39.6006 22.3222 39.6162 22.3054 39.6311 22.288L54.4631 7.44874C54.8235 7.08835 54.8234 6.50393 54.463 6.14365ZM20.8979 34.8467L22.2786 30.705L25.0397 33.4661L20.8979 34.8467ZM38.2771 21.0318C38.2607 21.0482 38.2452 21.0649 38.2303 21.0822L26.7483 32.5641L23.1804 28.9961L48.9371 3.22856L52.505 6.79642L38.2771 21.0318Z" fill="white"/>
</svg>
