<svg width="58" height="58" viewBox="0 0 58 58" fill="none" xmlns="http://www.w3.org/2000/svg">
<g clip-path="url(#clip0_776_323)">
<path d="M15.0089 8.00317C15.0089 4.09968 16.0796 1.97616 21.9907 0.964978C26.0039 0.277291 31.1495 0.19133 35.9493 0.964978C39.7403 1.57673 42.9311 4.33751 42.9311 8.00317V20.8815C42.9311 24.6587 39.8332 27.7527 35.9493 27.7527H21.9907C17.2533 27.7527 13.2607 31.7017 13.2607 36.1663V42.3451H8.4612C4.40143 42.3451 2.03774 39.4832 1.04478 35.4786C-0.294604 30.0986 -0.237747 26.8931 1.04478 21.7406C2.15673 17.2457 5.70976 14.874 9.76981 14.874H28.9725V13.1548H15.0086V8.00289L15.0089 8.00317Z" fill="url(#paint0_linear_776_323)"/>
<path d="M42.9314 49.2165C42.9314 53.1199 39.4663 55.097 35.9496 56.083C30.6589 57.5696 26.4127 57.3421 21.991 56.083C18.2982 55.0314 15.0092 52.8824 15.0092 49.2165V36.3381C15.0092 32.6317 18.1692 29.4669 21.991 29.4669H35.9496C40.599 29.4669 44.6796 25.5385 44.6796 20.8815V14.8745H49.9134C53.9785 14.8745 55.8923 17.8273 56.8952 21.7411C58.2915 27.1767 58.3536 31.2418 56.8952 35.479C55.4834 39.5949 53.9732 42.3456 49.9134 42.3456H28.9728V44.0648H42.9314V49.2165Z" fill="url(#paint1_linear_776_323)"/>
<path d="M18.4998 7.14865C18.4998 5.72285 19.6686 4.56982 21.117 4.56982C22.5599 4.56982 23.7342 5.72256 23.7342 7.14865C23.7342 8.56987 22.5602 9.72232 21.117 9.72232C19.6692 9.72232 18.4998 8.56958 18.4998 7.14865ZM34.206 50.0712C34.206 48.65 35.3801 47.4975 36.8232 47.4975C38.2711 47.4975 39.4405 48.6503 39.4405 50.0712C39.4405 51.497 38.2717 52.65 36.8232 52.65C35.3804 52.65 34.206 51.4973 34.206 50.0712Z" fill="white"/>
</g>
<defs>
<linearGradient id="paint0_linear_776_323" x1="42.9314" y1="16.7162" x2="0.0619063" y2="16.3675" gradientUnits="userSpaceOnUse">
<stop stop-color="white"/>
<stop offset="1" stop-color="white"/>
</linearGradient>
<linearGradient id="paint1_linear_776_323" x1="57.9656" y1="35.9945" x2="-26.8955" y2="35.9945" gradientUnits="userSpaceOnUse">
<stop stop-color="white"/>
<stop offset="1" stop-color="white"/>
</linearGradient>
<clipPath id="clip0_776_323">
<rect width="58" height="58" fill="white"/>
</clipPath>
</defs>
</svg>
