<svg width="95" height="110" viewBox="0 0 95 110" fill="none" xmlns="http://www.w3.org/2000/svg">
<path d="M49.5705 74.7857C50.8223 74.7857 52.0826 74.6998 53.344 74.5248C60.4616 73.5397 66.7665 69.8632 71.0975 64.1724C75.4277 58.4816 77.2658 51.4581 76.2729 44.3954C75.28 37.3326 71.575 31.0772 65.84 26.7796C60.1042 22.4828 53.0261 20.6561 45.9094 21.6439C38.7918 22.6289 32.4877 26.3055 28.1567 31.9963C21.5616 40.663 21.1225 52.0626 26.0956 61.0094L2.43655 92.0986C-1.1944 96.8711 -0.235464 103.684 4.57309 107.288C6.4807 108.718 8.7626 109.47 11.1236 109.47C11.6358 109.47 12.1509 109.434 12.6672 109.364C15.5664 108.962 18.1277 107.473 19.881 105.169L43.533 74.0885C45.5026 74.5422 47.5237 74.7857 49.5705 74.7857ZM30.5179 33.7662C34.3723 28.7003 39.9839 25.428 46.3179 24.5507C47.4416 24.3958 48.5624 24.3184 49.6773 24.3184C54.848 24.3184 59.8579 25.9752 64.0571 29.1224C69.1623 32.947 72.46 38.5154 73.3441 44.8013C74.2272 51.0873 72.5913 57.3389 68.7367 62.4027C64.8824 67.4686 59.2707 70.7409 52.9359 71.6182C46.5973 72.4934 40.3009 70.872 35.1967 67.0463C24.6598 59.1506 22.5607 44.2216 30.5179 33.7662ZM17.52 103.4C16.2432 105.078 14.3751 106.164 12.2589 106.456C10.1463 106.752 8.04522 106.213 6.35544 104.945C2.84761 102.317 2.14947 97.348 4.79754 93.8682L27.7801 63.6686C29.3187 65.7955 31.2 67.7308 33.4133 69.3893C35.604 71.0304 37.9959 72.294 40.5055 73.1948L17.52 103.4ZM34.4099 36.6812C40.7447 28.3573 52.7267 26.6966 61.1183 32.9845C61.7702 33.4728 61.9002 34.3929 61.4081 35.0397C60.9171 35.6875 59.9898 35.8156 59.337 35.3273C52.2463 30.0149 42.1237 31.4166 36.7709 38.4507C36.4802 38.8318 36.0372 39.0336 35.5894 39.0336C35.2784 39.0336 34.9654 38.9371 34.6987 38.7375C34.0469 38.2481 33.918 37.328 34.4099 36.6812ZM94.1296 9.45733V100.879C94.1296 105.616 90.2473 109.469 85.4742 109.469H23.3995C22.5829 109.469 21.9205 108.811 21.9205 108.001C21.9205 107.191 22.5829 106.534 23.3995 106.534H85.4744C88.6163 106.534 91.1718 103.997 91.1718 100.879V9.45733C91.1718 6.33969 88.6163 3.80302 85.4744 3.80302H8.89556C5.7537 3.80302 3.19733 6.33969 3.19733 9.45733V85.5825C3.19733 86.3927 2.53488 87.0501 1.71831 87.0501C0.901746 87.0501 0.2393 86.3927 0.2393 85.5825V9.45733C0.2393 4.72126 4.12249 0.867798 8.89556 0.867798H85.4744C90.2473 0.867798 94.1296 4.72126 94.1296 9.45733Z" fill="white"/>
</svg>
