<svg width="55" height="42" viewBox="0 0 55 42" fill="none" xmlns="http://www.w3.org/2000/svg">
<path d="M4.6608 4.96405C4.86804 4.96405 5.07212 4.8799 5.21834 4.73262C5.36561 4.5864 5.44977 4.38337 5.44977 4.17508C5.44977 3.96784 5.36561 3.76376 5.21834 3.61754C5.07212 3.47027 4.86804 3.38611 4.6608 3.38611C4.45356 3.38611 4.24948 3.47027 4.10326 3.61754C3.95598 3.76376 3.87183 3.96784 3.87183 4.17508C3.87183 4.38232 3.95598 4.5864 4.10326 4.73262C4.24948 4.8799 4.45356 4.96405 4.6608 4.96405Z" fill="white"/>
<path d="M7.18546 4.96405C7.39269 4.96405 7.59678 4.8799 7.743 4.73262C7.89027 4.5864 7.97443 4.38232 7.97443 4.17508C7.97443 3.96784 7.89027 3.76376 7.743 3.61754C7.59678 3.47027 7.39269 3.38611 7.18546 3.38611C6.97822 3.38611 6.77414 3.47027 6.62792 3.61754C6.48064 3.76376 6.39648 3.96784 6.39648 4.17508C6.39648 4.38232 6.48064 4.5864 6.62792 4.73262C6.77414 4.8799 6.97822 4.96405 7.18546 4.96405Z" fill="white"/>
<path d="M9.71024 4.96405C9.91747 4.96405 10.1216 4.8799 10.2678 4.73262C10.4151 4.5864 10.4992 4.38232 10.4992 4.17508C10.4992 3.96784 10.4151 3.76376 10.2678 3.61754C10.1216 3.47027 9.91747 3.38611 9.71024 3.38611C9.50195 3.38611 9.29892 3.47027 9.1527 3.61754C9.00542 3.76376 8.92126 3.96784 8.92126 4.17508C8.92126 4.38232 9.00542 4.5864 9.1527 4.73262C9.29892 4.8799 9.503 4.96405 9.71024 4.96405Z" fill="white"/>
<path d="M13.0764 4.96405L45.0561 4.96405C45.4919 4.96405 45.8451 4.6108 45.8451 4.17508C45.8451 3.73936 45.4919 3.38611 45.0561 3.38611L13.0764 3.38611C12.6407 3.38611 12.2875 3.73936 12.2875 4.17508C12.2875 4.6108 12.6407 4.96405 13.0764 4.96405Z" fill="white"/>
<path d="M48.4224 4.96405H50.1055C50.5413 4.96405 50.8945 4.6108 50.8945 4.17508C50.8945 3.73936 50.5413 3.38611 50.1055 3.38611H48.4224C47.9867 3.38611 47.6334 3.73936 47.6334 4.17508C47.6334 4.6108 47.9867 4.96405 48.4224 4.96405Z" fill="white"/>
<path d="M24.0169 11.8019L7.18548 11.8019C6.28636 11.8019 5.55493 12.5333 5.55493 13.4324V16.7987C5.55493 17.6978 6.28636 18.4293 7.18548 18.4293H24.0169C24.916 18.4293 25.6474 17.6978 25.6474 16.7987V13.4324C25.6474 12.5333 24.916 11.8019 24.0169 11.8019ZM24.0695 16.7987C24.0695 16.8276 24.0459 16.8513 24.0169 16.8513H7.18548C7.15644 16.8513 7.13288 16.8276 7.13288 16.7987V13.4324C7.13288 13.4035 7.15644 13.3798 7.18548 13.3798L24.0169 13.3798C24.0459 13.3798 24.0695 13.4035 24.0695 13.4324V16.7987Z" fill="white"/>
<path d="M48.4225 14.3266H43.1907C42.8606 13.3493 41.9357 12.6434 40.8484 12.6434C39.7611 12.6434 38.8362 13.3493 38.5061 14.3266H36.6405C36.2048 14.3266 35.8516 14.6798 35.8516 15.1155C35.8516 15.5513 36.2048 15.9045 36.6405 15.9045H38.5061C38.8362 16.8818 39.7611 17.5877 40.8484 17.5877C41.9357 17.5877 42.8606 16.8818 43.1907 15.9045H48.4225C48.8583 15.9045 49.2115 15.5513 49.2115 15.1155C49.2115 14.6798 48.8583 14.3266 48.4225 14.3266ZM40.8484 16.0097C40.3553 16.0097 39.9542 15.6086 39.9542 15.1155C39.9542 14.6225 40.3553 14.2214 40.8484 14.2214C41.3414 14.2214 41.7426 14.6225 41.7426 15.1155C41.7426 15.6086 41.3414 16.0097 40.8484 16.0097Z" fill="white"/>
<path d="M30.7494 11.8018C28.9222 11.8018 27.4357 13.2883 27.4357 15.1154C27.4357 16.9426 28.9222 18.4291 30.7494 18.4291C32.5765 18.4291 34.063 16.9426 34.063 15.1154C34.063 13.2883 32.5765 11.8018 30.7494 11.8018ZM30.7494 16.8512C29.7923 16.8512 29.0136 16.0725 29.0136 15.1154C29.0136 14.1584 29.7923 13.3797 30.7494 13.3797C31.7064 13.3797 32.4851 14.1584 32.4851 15.1154C32.4851 16.0725 31.7064 16.8512 30.7494 16.8512Z" fill="white"/>
<path d="M24.017 21.0591H7.1856C6.28648 21.0591 5.55505 21.7905 5.55505 22.6896V26.0559C5.55505 26.955 6.28648 27.6865 7.1856 27.6865H24.017C24.9161 27.6865 25.6476 26.955 25.6476 26.0559V22.6896C25.6476 21.7905 24.9161 21.0591 24.017 21.0591ZM24.0696 26.0559C24.0696 26.0848 24.0461 26.1085 24.017 26.1085H7.1856C7.15656 26.1085 7.133 26.0848 7.133 26.0559V22.6896C7.133 22.6607 7.15656 22.637 7.1856 22.637H24.017C24.0461 22.637 24.0696 22.6607 24.0696 22.6896V26.0559Z" fill="white"/>
<path d="M48.4224 23.5838H47.398C47.0679 22.6065 46.143 21.9006 45.0557 21.9006C43.9684 21.9006 43.0435 22.6065 42.7134 23.5838H36.6404C36.2047 23.5838 35.8514 23.937 35.8514 24.3727C35.8514 24.8085 36.2047 25.1617 36.6404 25.1617H42.7135C43.0436 26.139 43.9685 26.8449 45.0558 26.8449C46.1431 26.8449 47.068 26.139 47.3981 25.1617H48.4225C48.8582 25.1617 49.2115 24.8085 49.2115 24.3727C49.2115 23.937 48.8581 23.5838 48.4224 23.5838ZM45.0558 25.2669C44.5628 25.2669 44.1616 24.8658 44.1616 24.3727C44.1616 23.8797 44.5628 23.4786 45.0558 23.4786C45.5489 23.4786 45.95 23.8797 45.95 24.3727C45.95 24.8658 45.5489 25.2669 45.0558 25.2669Z" fill="white"/>
<path d="M30.7495 21.0592C28.9223 21.0592 27.4358 22.5457 27.4358 24.3729C27.4358 26.2 28.9223 27.6866 30.7495 27.6866C32.5766 27.6866 34.0632 26.2 34.0632 24.3729C34.0632 22.5457 32.5766 21.0592 30.7495 21.0592ZM30.7495 26.1086C29.7924 26.1086 29.0137 25.33 29.0137 24.3729C29.0137 23.4158 29.7924 22.6371 30.7495 22.6371C31.7066 22.6371 32.4852 23.4158 32.4852 24.3729C32.4852 25.33 31.7066 26.1086 30.7495 26.1086Z" fill="white"/>
<path d="M24.0169 30.3164H7.18548C6.28636 30.3164 5.55493 31.0478 5.55493 31.9469V35.3132C5.55493 36.2123 6.28636 36.9438 7.18548 36.9438H24.0169C24.916 36.9438 25.6474 36.2123 25.6474 35.3132V31.9469C25.6474 31.0478 24.916 30.3164 24.0169 30.3164ZM24.0695 35.3132C24.0695 35.3422 24.0459 35.3658 24.0169 35.3658H7.18548C7.15644 35.3658 7.13288 35.3422 7.13288 35.3132V31.9469C7.13288 31.918 7.15644 31.8944 7.18548 31.8944H24.0169C24.0459 31.8944 24.0695 31.918 24.0695 31.9469V35.3132Z" fill="white"/>
<path d="M48.4223 32.841H44.0316C43.7015 31.8637 42.7766 31.1578 41.6893 31.1578C40.602 31.1578 39.6771 31.8637 39.347 32.841H36.6403C36.2046 32.841 35.8513 33.1942 35.8513 33.63C35.8513 34.0657 36.2046 34.4189 36.6403 34.4189H39.3471C39.6772 35.3962 40.6021 36.1021 41.6894 36.1021C42.7767 36.1021 43.7016 35.3962 44.0317 34.4189H48.4223C48.858 34.4189 49.2113 34.0657 49.2113 33.63C49.2113 33.1942 48.858 32.841 48.4223 32.841ZM41.6894 34.5241C41.1963 34.5241 40.7952 34.123 40.7952 33.63C40.7952 33.1369 41.1963 32.7358 41.6894 32.7358C42.1825 32.7358 42.5836 33.1369 42.5836 33.63C42.5836 34.123 42.1825 34.5241 41.6894 34.5241Z" fill="white"/>
<path d="M30.7496 30.3164C28.9224 30.3164 27.4359 31.8029 27.4359 33.6301C27.4359 35.4572 28.9224 36.9438 30.7496 36.9438C32.5768 36.9438 34.0633 35.4572 34.0633 33.6301C34.0633 31.8029 32.5768 30.3164 30.7496 30.3164ZM30.7496 35.3658C29.7925 35.3658 29.0139 34.5872 29.0139 33.6301C29.0139 32.673 29.7925 31.8944 30.7496 31.8944C31.7067 31.8944 32.4853 32.673 32.4853 33.6301C32.4853 34.5872 31.7067 35.3658 30.7496 35.3658Z" fill="white"/>
<path d="M50.1056 0.0198975L4.66075 0.0198975C2.36957 0.0198975 0.505493 1.88398 0.505493 4.17515L0.505493 37.838C0.505493 40.1292 2.36957 41.9932 4.66075 41.9932H50.1056C52.3968 41.9932 54.2608 40.1292 54.2608 37.838V4.17515C54.2608 1.88398 52.3968 0.0198975 50.1056 0.0198975ZM4.66075 1.59784L50.1056 1.59784C51.5267 1.59784 52.6829 2.75406 52.6829 4.17515V6.75246L2.08344 6.75246L2.08344 4.17515C2.08344 2.75406 3.23965 1.59784 4.66075 1.59784ZM50.1056 40.4153H4.66075C3.23965 40.4153 2.08344 39.2591 2.08344 37.838L2.08344 8.33041L52.6829 8.33041V37.838C52.6829 39.2591 51.5267 40.4153 50.1056 40.4153Z" fill="white"/>
</svg>
