<svg width="37" height="38" viewBox="0 0 37 38" fill="none" xmlns="http://www.w3.org/2000/svg">
<path d="M1.78481 2.62648C1.44135 2.62648 1.1626 2.40995 1.1626 2.06648L1.1626 1.94204C1.1626 1.59858 1.44135 1.31982 1.78481 1.31982C2.12828 1.31982 2.40703 1.59858 2.40703 1.94204C2.40703 2.2855 2.12828 2.62648 1.78481 2.62648Z" fill="white"/>
<path d="M1.78481 5.11525C1.44135 5.11525 1.1626 4.89872 1.1626 4.55525L1.1626 4.43081C1.1626 4.08735 1.44135 3.80859 1.78481 3.80859C2.12828 3.80859 2.40703 4.08735 2.40703 4.43081C2.40703 4.77427 2.12828 5.11525 1.78481 5.11525Z" fill="white"/>
<path d="M1.78481 7.60402C1.44135 7.60402 1.1626 7.38748 1.1626 7.04402L1.1626 6.91958C1.1626 6.57612 1.44135 6.29736 1.78481 6.29736C2.12828 6.29736 2.40703 6.57612 2.40703 6.91958C2.40703 7.26304 2.12828 7.60402 1.78481 7.60402Z" fill="white"/>
<path d="M35.3844 31.1238C35.041 31.1238 34.7622 30.9073 34.7622 30.5638L34.7622 30.4394C34.7622 30.0959 35.041 29.8171 35.3844 29.8171C35.7279 29.8171 36.0066 30.0959 36.0066 30.4394C36.0066 30.7828 35.7279 31.1238 35.3844 31.1238Z" fill="white"/>
<path d="M35.3844 33.6128C35.041 33.6128 34.7622 33.3963 34.7622 33.0528L34.7622 32.9284C34.7622 32.5849 35.041 32.3062 35.3844 32.3062C35.7279 32.3062 36.0066 32.5849 36.0066 32.9284C36.0066 33.2718 35.7279 33.6128 35.3844 33.6128Z" fill="white"/>
<path d="M35.3844 36.1016C35.041 36.1016 34.7622 35.885 34.7622 35.5416L34.7622 35.4171C34.7622 35.0737 35.041 34.7949 35.3844 34.7949C35.7279 34.7949 36.0066 35.0737 36.0066 35.4171C36.0066 35.7606 35.7279 36.1016 35.3844 36.1016Z" fill="white"/>
<path d="M20.4512 37.4084L16.7179 37.4084C16.413 37.4084 16.1542 37.1881 16.1044 36.887L15.6278 33.9986C14.3634 33.7547 13.1514 33.3602 12.0127 32.8239L9.92454 34.8784C9.70677 35.0912 9.36828 35.1149 9.12313 34.9394L6.09792 32.748C5.85152 32.5688 5.76939 32.2378 5.90627 31.9652L7.21666 29.3469C6.35676 28.4248 5.60885 27.3957 4.98913 26.2794L2.08836 26.7125C1.77974 26.7635 1.49601 26.5793 1.40392 26.2881L0.259044 22.7291C0.165712 22.4404 0.293888 22.1268 0.56393 21.9861L3.15981 20.6334C3.07146 19.9552 3.02915 19.3442 3.02915 18.7419C3.02915 18.1433 3.07146 17.5286 3.15981 16.8404L0.565174 15.5002C0.295133 15.3608 0.165712 15.0459 0.259044 14.756L1.40392 11.1969C1.49601 10.9082 1.77725 10.7253 2.08836 10.7726L4.98913 11.2056C5.30023 10.6456 5.64245 10.1068 6.01205 9.60032C6.21365 9.32032 6.60564 9.26307 6.88066 9.46343C7.15942 9.66503 7.21915 10.0558 7.01755 10.332C6.60067 10.9057 6.21863 11.5242 5.88263 12.1726C5.76067 12.4065 5.50806 12.5434 5.23801 12.5011L2.4256 12.0817L1.60427 14.6353L4.123 15.937C4.35945 16.0602 4.4926 16.3202 4.45278 16.5841C4.33082 17.3942 4.27358 18.0811 4.27358 18.7419C4.27358 19.4077 4.33082 20.0896 4.45402 20.8873C4.49384 21.1511 4.36318 21.4112 4.12549 21.5344L1.60552 22.8485L2.42684 25.4046L5.23926 24.9852C5.51054 24.9454 5.76192 25.0773 5.88387 25.3137C6.55462 26.6067 7.40581 27.7777 8.41256 28.7969C8.59922 28.9861 8.64651 29.2748 8.52705 29.5125L7.25648 32.0511L9.42677 33.6241L11.4539 31.628C11.6456 31.4413 11.9343 31.394 12.1732 31.5172C13.4438 32.1656 14.8226 32.6136 16.2711 32.8513C16.535 32.8936 16.7403 33.1002 16.7838 33.364L17.2455 36.1639L19.9235 36.1639L20.3852 33.3627C20.4288 33.0989 20.6341 32.8923 20.8979 32.85C22.3465 32.6123 23.7253 32.1631 24.9958 31.516C25.2348 31.3928 25.5247 31.4388 25.7151 31.6267L27.7423 33.6228L29.9126 32.0499L28.642 29.5112C28.5226 29.2735 28.5686 28.9848 28.7565 28.7957C29.7645 27.7777 30.6145 26.6055 31.2852 25.3125C31.4059 25.0773 31.6548 24.9429 31.9298 24.984L34.7422 25.4033L35.5636 22.8473L33.0436 21.5332C32.8071 21.41 32.6752 21.1499 32.7151 20.8861C32.8383 20.0896 32.8955 19.4077 32.8955 18.7419C32.8955 18.0811 32.8383 17.3942 32.7151 16.5841C32.6752 16.3202 32.8071 16.0602 33.0448 15.937L35.5636 14.6353L34.7422 12.0805L31.9298 12.4998C31.656 12.5434 31.4059 12.4065 31.2852 12.1713C30.6145 10.8783 29.7633 9.70734 28.7565 8.68815C28.5699 8.49899 28.5226 8.21029 28.642 7.9726L29.9126 5.43396L27.7423 3.861L25.7151 5.85707C25.5247 6.04373 25.2348 6.09102 24.9958 5.96782C23.7253 5.31947 22.3465 4.87148 20.8979 4.63379C20.6341 4.59148 20.4288 4.3849 20.3852 4.12109L19.9235 1.31987L17.2455 1.31987L16.7838 4.12109C16.7403 4.3849 16.535 4.59148 16.2711 4.63379C14.8226 4.87148 13.4438 5.32072 12.1732 5.96782C11.9343 6.09102 11.6456 6.04498 11.4539 5.85707L9.42677 3.86224L7.25524 5.4352L8.5258 7.97384C8.67887 8.28122 8.55442 8.65455 8.24705 8.80886C7.93843 8.96317 7.56634 8.83624 7.41203 8.53011L5.90627 5.51858C5.77063 5.24605 5.85276 4.91503 6.09916 4.73583L9.12437 2.54439C9.36952 2.36519 9.70801 2.39133 9.92579 2.60537L12.0139 4.65992C13.1526 4.12233 14.3659 3.72909 15.629 3.48518L16.1056 0.596856C16.1542 0.295704 16.413 0.0754396 16.7179 0.0754396L20.4512 0.0754396C20.7561 0.0754396 21.0149 0.295704 21.0647 0.596856L21.5413 3.48518C22.8056 3.72909 24.0177 4.12357 25.1564 4.65992L27.2445 2.60537C27.4623 2.39133 27.8008 2.36768 28.0459 2.54439L31.0712 4.73583C31.3176 4.91503 31.3997 5.24605 31.2628 5.51858L29.9524 8.13687C30.8123 9.05899 31.5602 10.0881 32.1799 11.2044L35.0807 10.7713C35.3943 10.7253 35.6743 10.9057 35.7652 11.1957L36.91 14.7547C37.0034 15.0435 36.8739 15.3583 36.6039 15.4989L34.0093 16.8392C34.0976 17.5286 34.1399 18.1433 34.1399 18.7419C34.1399 19.3442 34.0976 19.9552 34.0093 20.6334L36.6051 21.9861C36.8752 22.1255 37.0034 22.4391 36.91 22.7291L35.7652 26.2881C35.6743 26.5781 35.3931 26.761 35.0807 26.7125L32.1799 26.2794C31.5602 27.3944 30.8123 28.4248 29.9524 29.3469L31.2628 31.9652C31.3984 32.2378 31.3176 32.5688 31.0712 32.748L28.0459 34.9394C27.7996 35.1174 27.4598 35.09 27.2445 34.8784L25.1564 32.8239C24.0177 33.3615 22.8044 33.7547 21.5413 33.9986L21.0647 36.887C21.0149 37.1881 20.7561 37.4084 20.4512 37.4084Z" fill="white"/>
<path d="M18.5844 29.9418C12.4083 29.9418 7.38452 24.918 7.38452 18.7419C7.38452 12.5658 12.4083 7.54199 18.5844 7.54199C24.7605 7.54199 29.7843 12.5658 29.7843 18.7419C29.7843 20.7902 29.2255 22.7937 28.1678 24.5372C27.9886 24.8296 27.6053 24.923 27.3116 24.7463C27.0192 24.5671 26.9246 24.185 27.1025 23.8901C28.0433 22.3433 28.5399 20.5625 28.5399 18.7419C28.5399 13.2527 24.0736 8.78642 18.5844 8.78642C13.0952 8.78642 8.62895 13.2527 8.62895 18.7419C8.62895 24.2311 13.0952 28.6973 18.5844 28.6973C20.3577 28.6973 22.0987 28.2244 23.6194 27.3297C23.9131 27.1555 24.2963 27.2513 24.4718 27.55C24.6473 27.8461 24.5477 28.2282 24.2515 28.4024C22.5392 29.4091 20.5805 29.9418 18.5844 29.9418Z" fill="white"/>
<path d="M25.9739 26.9278C25.8121 26.9278 25.6503 26.8643 25.5296 26.7411C25.2894 26.4947 25.2944 26.1002 25.5396 25.8613L25.6864 25.7157C25.9291 25.473 26.3235 25.473 26.5662 25.7157C26.8089 25.9584 26.8089 26.3528 26.5662 26.5955L26.4094 26.7511C26.2875 26.8693 26.1307 26.9278 25.9739 26.9278Z" fill="white"/>
<path d="M17.9622 21.853C17.9124 21.853 17.8626 21.8468 17.8116 21.8343C17.4769 21.7509 17.2753 21.4125 17.3586 21.0802L18.6031 16.1025C18.6852 15.7677 19.0175 15.5674 19.3572 15.6495C19.692 15.7329 19.8936 16.0714 19.8102 16.4036L18.5657 21.3813C18.4961 21.6651 18.2422 21.853 17.9622 21.853Z" fill="white"/>
<path d="M21.6955 21.8531C21.5362 21.8531 21.377 21.7921 21.255 21.6714C21.0123 21.4287 21.0123 21.0342 21.255 20.7916L23.3046 18.742L21.2562 16.6936C21.0136 16.451 21.0136 16.0565 21.2562 15.8138C21.4989 15.5712 21.8934 15.5712 22.1361 15.8138L24.6249 18.3027C24.8676 18.5454 24.8676 18.9398 24.6249 19.1825L22.1361 21.6714C22.0141 21.7921 21.8548 21.8531 21.6955 21.8531Z" fill="white"/>
<path d="M15.4734 21.8531C15.3142 21.8531 15.1549 21.7921 15.0329 21.6714L12.5441 19.1825C12.3014 18.9398 12.3014 18.5454 12.5441 18.3027L15.0329 15.8138C15.2756 15.5712 15.6701 15.5712 15.9127 15.8138C16.1554 16.0565 16.1554 16.451 15.9127 16.6936L13.8644 18.742L15.9127 20.7903C16.1554 21.033 16.1554 21.4275 15.9127 21.6701C15.792 21.7921 15.6327 21.8531 15.4734 21.8531Z" fill="white"/>
</svg>
