<svg width="70" height="70" viewBox="0 0 70 70" fill="none" xmlns="http://www.w3.org/2000/svg">
<rect width="70" height="70" rx="20" fill="white"/>
<path d="M34.7857 7.04669C37.9896 7 41.17 7.02428 44.3485 7C44.4542 10.793 46.0669 14.2068 48.6328 16.7355L48.6289 16.7317C51.3905 19.1054 54.9838 20.6442 58.9452 20.9057L59 20.9094V30.3143C55.2579 30.2247 51.7388 29.4011 48.5662 27.9855L48.7267 28.049C47.1923 27.345 45.8947 26.6222 44.6616 25.8154L44.7634 25.8789C44.7399 32.6936 44.7869 39.5082 44.7145 46.2986C44.5129 49.7592 43.3073 52.9153 41.3736 55.5504L41.4127 55.4925C38.1794 59.9111 32.942 62.8114 26.9863 62.9832H26.9589C26.7181 62.9944 26.4343 63 26.1486 63C22.7627 63 19.5979 62.0998 16.9009 60.5367L16.9792 60.5797C12.0705 57.7616 8.68461 52.9396 8.05831 47.3314L8.05048 47.2548C8.00155 46.0876 7.97806 44.9204 8.02699 43.7774C8.98602 34.8525 16.8226 27.9482 26.3482 27.9482C27.4188 27.9482 28.4679 28.036 29.4876 28.2022L29.378 28.1872C29.4269 31.6403 29.2801 35.0952 29.2801 38.5483C28.4522 38.2626 27.4971 38.0964 26.5009 38.0964C22.8449 38.0964 19.7349 40.3262 18.5841 43.4394L18.5665 43.4954C18.3061 44.2929 18.1554 45.2098 18.1554 46.1585C18.1554 46.5433 18.1809 46.9242 18.2279 47.2977L18.2239 47.2529C18.8737 51.0739 22.3066 53.9574 26.4461 53.9574C26.5655 53.9574 26.6829 53.9555 26.8003 53.9499H26.7827C29.6461 53.8677 32.1317 52.398 33.537 50.226L33.5566 50.1924C34.0791 49.4977 34.4373 48.6573 34.5567 47.7441L34.5586 47.7179C34.8033 43.5403 34.7054 39.3868 34.7289 35.2092C34.7524 25.8042 34.7054 16.4217 34.7778 7.04109L34.7857 7.04669Z" fill="black"/>
</svg>
