<svg width="70" height="70" viewBox="0 0 70 70" fill="none" xmlns="http://www.w3.org/2000/svg">
<rect width="70" height="70" rx="20" fill="white"/>
<g clip-path="url(#clip0_936_353)">
<path fill-rule="evenodd" clip-rule="evenodd" d="M29.5533 22.9379C28.8183 22.5179 27.9152 22.5209 27.1829 22.9458C26.4507 23.3708 26 24.1534 26 25V44C26 44.8467 26.4507 45.6292 27.1829 46.0541C27.9152 46.479 28.8183 46.4821 29.5533 46.062L46.1782 36.562C46.9183 36.1392 47.375 35.3524 47.375 34.5C47.375 33.6476 46.9183 32.8608 46.1782 32.438L29.5533 22.9379ZM40.2129 34.5L30.75 39.9074V29.0925L40.2129 34.5Z" fill="black"/>
<path fill-rule="evenodd" clip-rule="evenodd" d="M7 34.5C7 25.5944 7 21.1416 9.26792 18.02C10.0004 17.0119 10.8869 16.1254 11.895 15.3929C15.0166 13.125 19.4694 13.125 28.375 13.125H42.625C51.5305 13.125 55.9834 13.125 59.1049 15.3929C60.1131 16.1254 60.9997 17.0119 61.7321 18.02C64 21.1416 64 25.5944 64 34.5C64 43.4055 64 47.8584 61.7321 50.9799C60.9997 51.9881 60.1131 52.8747 59.1049 53.6071C55.9834 55.875 51.5305 55.875 42.625 55.875H28.375C19.4694 55.875 15.0166 55.875 11.895 53.6071C10.8869 52.8747 10.0004 51.9881 9.26792 50.9799C7 47.8584 7 43.4055 7 34.5ZM28.375 17.875H42.625C47.1836 17.875 50.221 17.8815 52.5223 18.1309C54.7349 18.3706 55.697 18.7881 56.3131 19.2358C56.9177 19.6752 57.4497 20.2072 57.8894 20.812C58.3368 21.4281 58.7543 22.3902 58.9942 24.6026C59.2436 26.904 59.25 29.9414 59.25 34.5C59.25 39.0586 59.2436 42.096 58.9942 44.3973C58.7543 46.6099 58.3368 47.572 57.8894 48.1881C57.4497 48.7927 56.9177 49.3247 56.3131 49.7644C55.697 50.2118 54.7349 50.6293 52.5223 50.8692C50.221 51.1186 47.1836 51.125 42.625 51.125H28.375C23.8164 51.125 20.779 51.1186 18.4776 50.8692C16.2652 50.6293 15.3031 50.2118 14.687 49.7644C14.0822 49.3247 13.5502 48.7927 13.1108 48.1881C12.6631 47.572 12.2456 46.6099 12.0059 44.3973C11.7565 42.096 11.75 39.0586 11.75 34.5C11.75 29.9414 11.7565 26.904 12.0059 24.6026C12.2456 22.3902 12.6631 21.4281 13.1108 20.812C13.5502 20.2072 14.0822 19.6752 14.687 19.2358C15.3031 18.7881 16.2652 18.3706 18.4776 18.1309C20.779 17.8815 23.8164 17.875 28.375 17.875Z" fill="black"/>
</g>
<defs>
<clipPath id="clip0_936_353">
<rect width="57" height="57" fill="white" transform="translate(7 6)"/>
</clipPath>
</defs>
</svg>
