<svg width="98" height="98" viewBox="0 0 98 98" fill="none" xmlns="http://www.w3.org/2000/svg">
<path d="M82.4276 37.2833C81.6908 29.7852 78.1935 22.8285 72.6149 17.7645C67.0363 12.7005 59.7746 9.89078 52.2404 9.88098H46.1732C38.639 9.89078 31.3773 12.7005 25.7987 17.7645C20.22 22.8285 16.7227 29.7852 15.986 37.2833C12.6557 37.5243 9.53937 39.0149 7.26156 41.4564C4.98376 43.898 3.71269 47.11 3.70303 50.4491V60.3204C3.70705 63.8375 5.10599 67.2094 7.59295 69.6963C10.0799 72.1833 13.4518 73.5822 16.9689 73.5862H24.9381C25.3365 73.5862 25.731 73.5078 26.099 73.3553C26.4671 73.2029 26.8015 72.9794 27.0832 72.6977C27.3649 72.416 27.5883 72.0816 27.7408 71.7135C27.8932 71.3455 27.9717 70.951 27.9717 70.5526V40.2168C27.9717 39.4123 27.6521 38.6407 27.0832 38.0717C26.5143 37.5028 25.7427 37.1832 24.9381 37.1832H22.1138C22.8573 31.3239 25.7099 25.936 30.1382 22.0276C34.5664 18.1192 40.2669 15.958 46.1732 15.9481H52.2404C58.1467 15.958 63.8472 18.1192 68.2754 22.0276C72.7036 25.936 75.5563 31.3239 76.2997 37.1832H73.4754C72.6709 37.1832 71.8993 37.5028 71.3304 38.0717C70.7615 38.6407 70.4419 39.4123 70.4419 40.2168V70.5526C70.4419 71.3572 70.7615 72.1288 71.3304 72.6977C71.8993 73.2666 72.6709 73.5862 73.4754 73.5862H76.0783C75.4077 76.1834 73.8955 78.4852 71.7779 80.1318C69.6604 81.7784 67.057 82.6769 64.3747 82.687H58.3075V79.6534C58.3075 78.8488 57.9879 78.0772 57.419 77.5083C56.8501 76.9394 56.0785 76.6198 55.2739 76.6198C54.4694 76.6198 53.6978 76.9394 53.1289 77.5083C52.56 78.0772 52.2404 78.8488 52.2404 79.6534V85.7206C52.2404 86.5251 52.56 87.2967 53.1289 87.8656C53.6978 88.4345 54.4694 88.7541 55.2739 88.7541H64.3747C68.6878 88.7492 72.859 87.2127 76.1448 84.4187C79.4305 81.6246 81.6173 77.7545 82.3153 73.4983C85.6672 73.2829 88.8121 71.802 91.1134 69.3554C93.4147 66.9088 94.7005 63.6792 94.7105 60.3204V50.4491C94.7009 47.11 93.4298 43.898 91.152 41.4564C88.8742 39.0149 85.7579 37.5243 82.4276 37.2833ZM21.9045 67.5191H16.9689C15.0602 67.5175 13.2301 66.7585 11.8804 65.4088C10.5308 64.0592 9.77181 62.2291 9.7702 60.3204V50.4491C9.77181 48.5404 10.5308 46.7103 11.8804 45.3606C13.2301 44.011 15.0602 43.252 16.9689 43.2504H21.9045V67.5191ZM88.6434 60.3204C88.6418 62.2291 87.8828 64.0592 86.5331 65.4088C85.1835 66.7585 83.3534 67.5175 81.4447 67.5191H76.509V43.2504H81.4447C83.3534 43.252 85.1835 44.011 86.5331 45.3606C87.8828 46.7103 88.6418 48.5404 88.6434 50.4491V60.3204Z" fill="white"/>
</svg>
