<svg width="41" height="54" viewBox="0 0 41 54" fill="none" xmlns="http://www.w3.org/2000/svg">
<g clip-path="url(#clip0_775_314)">
<path d="M12.2521 33.3768C10.6907 32.1179 9.02446 30.9114 7.88611 29.2115C5.49009 26.2138 3.64583 22.7439 2.38495 19.0968C1.62247 16.725 1.36161 14.1824 0.378216 11.9027C-0.649146 10.2465 0.555162 8.43721 2.32516 7.91105C3.11257 7.75554 4.49812 6.99363 2.82571 7.53875C1.32595 8.66581 1.18145 6.51473 2.719 6.37844C3.76835 6.23584 4.15468 5.35579 3.79543 4.56366C2.6686 3.81027 6.52684 2.9838 4.58525 1.86003C2.56404 -0.375682 7.41371 -0.805955 6.21691 1.73337C5.93085 3.68581 9.60678 1.37481 8.75315 3.62976C9.62045 4.71286 11.9998 3.87676 11.9401 5.39536C13.2031 5.48438 13.6366 6.5727 14.8211 6.6565C16.0506 7.22525 18.2772 7.67283 18.6949 9.09169C17.4761 10.0803 14.6546 7.04941 14.5184 9.78628C14.887 13.8302 14.7929 17.9958 16.2361 21.8466C16.9187 24.1779 18.5745 26.013 20.0689 27.8292C21.4995 29.6074 23.437 30.86 25.4121 31.914C27.1443 32.7512 29.0116 33.3059 30.8999 33.6549C31.6653 33.0548 33.0173 30.8235 34.2112 31.7637C34.2688 32.8221 31.8414 33.9747 34.0972 33.8576C35.423 33.4477 36.3415 34.9072 37.4327 33.5903C38.4381 34.8108 41.6113 32.8111 40.896 35.3056C39.9284 35.9453 38.5177 35.5587 37.549 36.439C35.952 35.621 34.6804 37.1699 32.9117 36.9745C30.9481 37.335 28.9497 37.4801 26.9591 37.4831C23.6925 37.219 20.3571 37.1075 17.2498 35.942C15.4988 35.4205 13.7908 34.3986 12.2521 33.3768ZM15.0106 34.6025C16.7198 35.3592 18.3914 36.1577 20.2649 36.3992C23.237 36.822 26.3065 37.4746 29.2891 36.88C27.9392 36.2555 26.5432 37.1226 25.1984 36.4335C23.5858 36.7888 21.8547 36.3423 20.2145 36.1222C18.3503 35.2713 16.3377 34.6863 14.5918 33.5807C12.4092 32.7641 15.7197 34.6283 16.3093 34.7797C17.6729 35.5727 14.8095 34.3728 14.4052 34.0434C13.2629 33.3864 13.1173 33.5238 14.2924 34.1904C14.5288 34.3322 14.7626 34.4813 15.0106 34.6025ZM11.7578 32.2467C13.4146 32.8757 11.7505 31.0532 10.9923 31.1584C10.6561 30.5605 9.70732 30.1827 10.3765 29.8618C9.17326 30.2902 9.11562 28.2336 8.55019 28.5279C7.27672 28.1157 8.05474 26.6559 6.53729 25.7588C6.39895 24.8142 5.0303 23.9954 4.59464 22.5711C4.40187 21.8413 3.04769 19.7474 3.87934 21.6963C4.58713 23.5723 5.83246 25.1802 6.8692 26.7848C7.6735 28.313 8.62446 29.9113 10.0896 30.8644C10.584 31.3505 11.0604 32.0942 11.7578 32.2467ZM6.98663 26.8771C7.28932 27.4319 7.044 26.6205 6.98663 26.8771ZM13.7425 33.0001C14.109 32.8317 13.2146 32.7877 13.7425 33.0001ZM14.6409 33.3362C14.5479 32.8724 14.2304 33.5958 14.6409 33.3362ZM15.7669 33.817C16.3021 33.2941 14.9406 33.4873 15.7669 33.817ZM17.6959 34.919C18.0217 34.4264 16.6538 34.7336 17.6959 34.919ZM13.9918 32.2726C14.8232 31.7208 12.9162 32.2649 13.9918 32.2726ZM14.8358 32.7039C14.8117 32.413 14.5353 32.8347 14.8358 32.7039ZM19.0552 35.4032C19.7337 35.8422 23.0172 36.3648 20.9614 35.5834C20.6166 35.6576 17.1493 34.5778 19.0552 35.4032ZM12.357 30.0561C12.291 29.7643 11.3033 29.733 12.357 30.0561ZM14.3205 31.2304C14.8326 30.8644 13.2597 30.9479 14.3205 31.2304ZM15.9731 32.2682C16.7072 31.9849 14.7835 31.9838 15.9731 32.2682ZM11.5567 29.1642C12.3527 29.7898 14.7677 29.2447 12.7757 28.7908C11.8698 28.296 9.82769 27.9569 11.2197 29.0892L11.5567 29.1642ZM17.0927 32.6267C17.4246 32.0481 15.7018 32.2959 17.0927 32.6267ZM15.4106 31.2571C17.3565 31.8206 13.7739 29.9948 14.9302 31.0488L15.1868 31.168L15.4106 31.2571ZM18.7831 33.2545C20.6263 33.2727 17.1179 32.9938 18.7831 33.2545ZM10.8478 28.0715C10.7754 27.7195 10.3934 28.1006 10.8478 28.0715ZM21.9008 35.0468C21.9499 34.4116 21.2995 35.5202 21.9008 35.0468ZM13.9937 30.0454C13.8816 29.7104 13.4178 30.0314 13.9937 30.0454ZM11.0226 27.8506C12.0805 27.7852 9.57327 27.3731 11.0226 27.8506ZM7.50272 25.5193C7.37082 24.9989 6.35177 24.5845 7.50272 25.5193ZM16.7428 31.5288C16.6517 31.578 16.5492 31.3021 16.7428 31.5288ZM22.4933 35.1457C22.4756 34.799 22.1802 35.2765 22.4933 35.1457ZM16.234 30.99C16.3377 30.5435 15.3313 30.8545 16.234 30.99ZM11.9494 28.207C12.7371 28.121 10.6875 27.6616 11.9494 28.207ZM19.1967 32.8221C20.4241 32.3239 18.0007 32.5795 19.1967 32.8221ZM15.4275 30.2001C16.8412 30.3866 13.7446 29.2137 15.1165 30.0948L15.4275 30.2001ZM20.3413 33.2963C21.6619 32.4882 21.2263 35.1908 22.5815 33.5249C23.9177 32.5248 21.4273 34.7613 23.0737 33.7032C24.2655 32.8864 26.0247 34.0906 27.136 34.4824C27.9349 34.4426 28.7122 35.1908 29.532 34.7355C31.1093 34.2997 26.447 34.0895 27.669 33.3177C26.2258 33.7483 25.1598 32.8048 24.4496 31.8571C22.8306 31.4738 20.9592 30.6259 20.1506 29.1568C19.8209 28.6062 20.6263 29.2351 19.8659 28.3336C18.8908 27.4448 18.404 26.4348 17.7493 25.3541C16.9669 24.9269 16.8747 23.6679 16.7962 25.3124C16.8026 24.2743 15.8516 23.5756 15.6192 23.8655C15.6149 22.8662 16.6372 23.3673 15.9219 22.628C15.768 21.5921 15.261 20.5126 15.109 19.3427C14.8725 18.7791 15.0755 17.5719 14.3007 18.8478C14.0189 20.1969 14.2074 17.1908 14.6463 18.1813C15.2221 17.1704 14.4388 17.2894 14.4074 17.429C14.7825 16.5759 14.6452 15.365 14.309 15.8266C14.509 14.9218 14.6254 12.4973 14.0106 12.9276C14.3833 11.9811 14.7176 8.59795 13.0983 9.88822C12.4427 9.89783 11.3065 10.1319 10.7703 10.4056C12.4532 11.3565 10.6006 10.749 9.91456 10.5976C9.82555 11.4777 9.14699 11.0977 8.29872 11.1062C9.65396 11.2779 7.63892 12.5262 6.86304 12.0412C5.85337 12.535 7.73329 13.7692 6.88288 14.1511C6.9877 14.7253 5.33701 13.9431 5.46596 15.2718C4.48659 14.8487 5.33191 16.8473 5.822 16.1711C7.48825 16.6338 6.99494 17.6867 7.03677 18.6879C6.76545 19.2707 5.69626 17.3174 6.79896 17.4075C5.9287 15.9596 5.83675 16.8839 5.11395 17.5567C4.94638 17.6051 6.95714 18.514 5.69519 18.9627C6.80539 19.1388 6.83783 20.1348 7.06411 20.7648C7.73115 21.4773 7.59388 19.9779 8.39309 20.8346C7.88718 20.0713 5.7161 18.6846 7.46412 19.1292C7.45473 18.3618 7.14776 17.7425 7.68396 17.7573C8.21507 16.7731 7.12792 20.1851 8.32392 18.9338C8.65475 18.7857 8.7376 17.9485 9.33251 19.0132C10.1963 19.8848 9.64458 20.5156 8.42553 19.7172C8.64322 20.4761 10.0561 20.7464 9.79016 21.9326C10.0717 22.9758 10.4655 22.5914 10.8089 22.5313C11.0781 23.5446 11.2312 22.7997 11.2438 22.3167C12.4763 22.5873 12.1872 23.3341 12.5736 23.8559C13.4229 24.2485 11.3577 21.1929 12.8157 22.9371C14.3497 24.357 13.3916 24.9494 12.0146 24.7219C12.8859 24.6499 13.1664 25.9295 14.2567 25.8844C15.2506 26.3694 15.924 28.2306 14.2106 27.4555C13.6168 26.906 11.5127 26.2287 13.2315 27.273C14.817 28.0264 16.0779 28.4762 17.608 29.4219C18.7024 30.2226 19.1756 31.14 19.5903 31.3216C18.6699 31.7722 16.8173 30.962 18.1932 30.7141C17.3345 30.5542 16.3691 30.1088 17.1911 31.2046C17.8906 31.8035 19.6678 31.7401 19.9874 31.8077C19.7171 32.4174 19.2533 32.4657 19.9978 32.513C19.1673 32.9669 20.2649 33.0378 20.3413 33.2963ZM18.6426 28.3798C18.1367 27.8377 18.0058 26.8235 18.5525 27.7055C18.8332 27.8215 19.4501 29.364 18.6426 28.3798ZM24.1754 31.9816C24.4907 31.9602 24.1848 32.2272 24.1754 31.9816ZM17.8447 27.051C18.0268 27.683 17.8246 26.232 17.8447 27.051ZM17.2948 26.2933C18.0959 26.6496 16.6581 25.0343 17.2948 26.2933ZM10.6299 21.5795C11.0039 21.4773 10.8143 22.234 10.6299 21.5795ZM15.9345 24.5255C16.2037 25.2662 16.1637 23.6421 15.9345 24.5255ZM12.1872 21.8551C12.7393 22.3125 11.9234 21.3679 12.1872 21.8551ZM15.4023 22.9112C14.8002 21.5289 15.8297 22.1557 15.5364 23.1376L15.4023 22.9112ZM9.85719 19.1215C9.58801 18.6676 9.14296 17.3367 9.2864 16.93C9.41509 17.5922 10.6593 19.7784 9.89579 17.8359C9.05288 16.2077 10.9044 18.3637 11.095 18.7706C11.184 19.1742 10.5744 18.6602 10.987 19.6078C10.2341 18.5291 10.543 20.2035 9.85719 19.1215ZM8.14375 17.9109C8.53545 18.6343 8.214 16.8558 8.14375 17.9109ZM8.91454 18.1835C9.53761 19.2932 9.28211 17.3872 8.91454 18.1835ZM7.05982 16.7132C6.42201 16.0626 5.96007 15.4639 7.09012 16.3096C7.52471 16.3266 6.12254 14.9476 7.19494 15.8716C8.32177 16.0821 7.75099 17.7661 7.05982 16.7132ZM8.03383 16.6874C8.40462 16.3107 8.23062 17.0578 8.03383 16.6874ZM8.63384 16.8839C9.31562 17.3367 8.07137 15.8052 8.63384 16.8839ZM7.44213 15.7172C5.58741 14.0244 9.7722 16.6014 7.74482 16.0305L7.44213 15.7172ZM12.757 18.8811C11.9537 18.3884 12.5433 15.4092 12.8178 17.4463C13.598 17.1875 12.7747 18.4992 13.3559 18.4863C13.265 19.3135 13.0042 19.6111 12.757 18.8811ZM14.7227 20.0724C14.8881 20.6865 14.8012 19.1742 14.7227 20.0724ZM14.3814 19.7257C14.4693 19.3427 14.3897 20.1777 14.3814 19.7257ZM7.80541 15.1611C6.6137 13.476 11.2687 16.8654 8.56896 15.5884C8.28719 15.5123 7.94697 15.4853 7.80541 15.1611ZM11.5913 17.2177C11.8427 17.4526 11.4784 15.7988 11.5913 17.2177ZM14.465 19.1075C14.687 18.2994 14.4819 19.6422 14.465 19.1075ZM7.98879 14.5182C8.69685 14.3627 10.9232 15.7922 8.87889 14.9262C8.6518 14.6685 8.16681 14.7855 7.98879 14.5182ZM14.0701 17.6243C14.1457 16.1733 14.4935 16.7583 14.0733 17.8326L14.0701 17.6243ZM8.51561 14.0129C8.80462 13.5791 7.74884 12.0519 8.66735 13.4653C9.06441 13.7884 9.81617 14.0063 9.15235 14.1426C10.1963 15.0861 8.89792 14.3981 8.51561 14.0129ZM13.7696 17.1715C13.9688 15.5186 13.9457 18.1395 13.7696 17.1715ZM7.91238 12.4866C8.1333 12.3899 8.02954 12.788 7.91238 12.4866ZM9.28318 13.3227C9.93359 14.1684 9.636 12.5638 9.28318 13.3227ZM13.1487 15.526C13.2218 15.95 13.1454 15.2353 13.1487 15.526ZM12.9245 15.0185C13.424 15.7365 12.3883 13.6618 12.9245 15.0185ZM12.5956 14.1286C12.9015 14.8328 12.5058 13.5683 12.5956 14.1286ZM13.1318 13.2356C12.7631 12.5712 13.5969 10.3056 13.6902 11.7107C13.3015 12.8053 13.5782 13.4172 13.8481 11.9489C14.3489 10.7941 13.7404 14.2297 13.1318 13.2356ZM13.6827 9.86678C13.843 9.66484 13.7184 10.1102 13.6827 9.86678ZM12.7623 28.4485C12.7905 28.5718 12.5444 28.2531 12.7623 28.4485ZM14.6578 29.4305C15.7122 29.7085 15.7071 29.2629 14.754 29.1299C14.242 28.6416 12.624 28.1231 14.0723 29.0697C14.1677 29.3189 14.4704 29.3123 14.6578 29.4305ZM10.9148 26.8823C11.495 27.3269 13.1025 28.1402 11.7422 27.0521C12.2009 26.5056 10.8644 26.2149 11.3076 25.849C10.1797 25.1415 10.4172 25.2049 11.2081 25.2275C9.8529 24.606 11.4039 24.6532 11.3307 24.3345C10.8081 24.2293 8.73438 23.3899 9.95451 24.4032C8.71454 23.7559 9.65906 24.6447 9.28425 24.5513C8.01587 24.1971 10.4132 25.541 9.08318 25.2071C9.81 25.7973 11.0406 26.7205 9.38989 25.8317C9.17326 26.1526 10.5714 26.6389 10.9148 26.8823ZM12.8972 28.0501C15.3071 28.8455 11.7149 27.0766 12.8972 28.0501ZM23.0453 34.3503C23.0767 33.8598 22.7164 34.7687 23.0453 34.3503ZM24.0885 34.8001C24.6445 34.2484 24.1116 35.6801 25.01 34.6649C25.0194 33.9382 24.9829 33.509 23.9775 34.3921C23.6998 34.55 23.5764 35.2185 24.0885 34.8001ZM7.53114 24.1435C7.36036 23.4555 6.33407 23.4586 7.53114 24.1435ZM8.6443 24.8914C8.23062 24.1886 7.16867 24.2551 8.6443 24.8914ZM14.9814 28.8078C15.6004 29.3714 17.8227 29.2211 15.7323 28.8776C15.4232 28.4086 13.7677 28.5213 14.9814 28.8078ZM23.6915 34.3214C24.6435 33.5024 22.7689 34.6863 23.6915 34.3214ZM25.6719 35.7156C25.6781 35.4526 25.2614 35.8304 25.6719 35.7156ZM25.6751 35.3474C26.7296 34.2033 24.6539 35.415 25.6751 35.3474ZM4.79142 21.793C3.89302 20.4794 4.23324 19.8889 3.3662 18.8157C3.20158 17.9947 1.87904 16.1335 2.68227 18.1052C3.41741 19.2589 3.63537 21.0448 4.79142 21.793ZM25.344 34.9836C27.2848 33.6988 24.5483 34.4245 25.344 34.9836ZM26.825 35.5782C27.7969 34.7237 26.2103 35.3999 26.825 35.5782ZM7.20111 22.6912C7.47886 22.2672 6.48287 22.6365 7.20111 22.6912ZM26.5159 35.1724C27.4564 34.5511 26.2993 34.6465 26.3454 35.2292L26.5159 35.1724ZM13.7519 26.9274C13.7194 26.5067 13.2546 26.9628 13.7519 26.9274ZM14.5404 27.3923C14.2892 26.8727 14.1551 27.4739 14.5404 27.3923ZM28.025 35.5922C29.2304 34.7012 27.2953 35.4213 27.7727 35.7617L28.025 35.5922ZM27.5634 35.3636C28.5457 34.5209 26.5274 35.737 27.5634 35.3636ZM29.9216 36.9723C30.5806 36.5203 29.1205 36.8264 29.9216 36.9723ZM7.80541 22.3854C8.68827 22.5881 11.3358 24.6145 9.77434 22.526C8.97433 22.2834 9.45396 20.2796 8.63813 20.6338C9.18586 21.5718 9.08827 21.9699 7.93839 21.3797C6.4944 20.6563 7.12685 21.7372 7.40969 22.0356C7.02416 22.1257 7.91855 22.3779 7.80541 22.3854ZM3.78095 19.1281C3.93886 18.4571 2.32409 15.4403 3.01847 17.6158C3.26861 18.0719 3.2426 18.9358 3.78095 19.1281ZM11.1682 23.7957C11.1462 23.7399 10.7127 23.4061 11.1682 23.7957ZM12.2878 24.063C12.2878 23.3525 11.05 23.7743 12.2878 24.063ZM21.996 30.3341C21.8107 29.8489 21.2641 30.3234 21.996 30.3341ZM22.4619 30.6828C22.3928 30.4113 22.1928 30.7356 22.4619 30.6828ZM26.3097 33.1675C26.6794 32.8875 25.8478 33.1312 26.3097 33.1675ZM5.79063 19.654C6.84936 19.2341 4.6563 19.3545 5.79063 19.654ZM21.1413 29.5645C21.1289 28.8625 20.4659 29.7396 21.1413 29.5645ZM5.37266 18.6547C6.0523 18.4198 4.74316 18.5003 5.37266 18.6547ZM7.34562 19.6345C7.33409 19.4039 7.1373 19.7227 7.34562 19.6345ZM31.4173 34.7624C32.2916 34.5811 34.2846 35.2185 34.6061 34.5253C33.5442 34.4984 30.9334 33.7568 30.8098 34.7012L31.0422 34.7388L31.4173 34.7624ZM7.97297 19.7966C7.98879 19.085 7.43168 19.7699 7.97297 19.7966ZM2.78496 16.1079C2.5493 14.7523 1.88843 15.9027 2.78496 16.1079ZM4.0217 16.4267C4.03752 15.9909 2.88951 16.0349 4.0217 16.4267ZM4.72869 16.783C4.56943 16.9965 4.52439 16.6132 4.72869 16.783ZM9.17835 19.7076C9.38801 19.51 8.6821 19.5617 9.17835 19.7076ZM4.25844 15.9802C4.13806 14.9561 2.82463 15.8266 4.25844 15.9802ZM1.72086 14.2929C1.68521 13.8206 1.47368 14.4709 1.72086 14.2929ZM2.09889 14.0011C2.03722 13.4406 1.77422 14.0717 2.09889 14.0011ZM4.1831 15.276C5.06488 14.9218 2.57745 14.5418 4.00294 15.2095L4.1831 15.276ZM32.0865 32.9399C32.6508 32.4099 31.3701 32.7759 32.0865 32.9399ZM35.4576 34.7303C35.6839 34.0456 34.8879 34.8204 35.4576 34.7303ZM4.39651 14.1566C4.48981 13.4933 3.69703 14.2885 4.39651 14.1566ZM1.42971 12.1195C1.27045 11.1837 1.29244 9.54037 2.81632 10.0954C0.782511 10.5097 4.22492 12.6872 3.79033 10.9677C4.64584 11.0109 5.46382 10.4495 5.01448 11.3005C6.70057 11.1106 7.86841 9.61236 9.49686 9.82282C10.765 9.65 12.1516 9.52004 13.5184 8.99635C14.642 8.91365 15.7238 7.67393 15.1082 6.93868C13.576 6.8057 11.9714 7.00215 10.2781 7.34779C8.4014 7.74702 6.69655 8.50673 4.80295 8.83314C2.95654 9.08757 5.17373 9.53295 4.64477 9.63269C3.68229 9.97504 5.79358 10.2058 4.5201 10.5674C3.73376 10.4141 2.91472 10.1371 3.25091 9.28704C1.48306 9.52334 -0.0711213 10.2745 1.32595 12.1184L1.42971 12.1195ZM5.69117 9.89563C6.10485 8.33088 7.91131 11.1837 6.36973 10.1039C6.18635 9.96213 5.88259 9.84728 5.69117 9.89563ZM5.7716 9.13675C6.36973 8.68065 6.08903 9.39338 5.7716 9.13675ZM6.53086 9.14966C6.58555 8.42952 8.27056 9.53076 6.80861 9.40849L6.53086 9.14966ZM7.56975 8.72159C7.94992 8.26631 7.67994 9.12494 7.56975 8.72159ZM7.83597 8.53915C8.46842 7.76103 11.4143 8.04211 9.25798 8.46277C8.67995 8.01628 8.23705 8.72571 7.83597 8.53915ZM11.6813 7.93166C13.5926 8.68615 11.5862 5.8053 11.6813 7.93166ZM12.7728 7.92506C13.1717 6.85405 14.3216 7.49479 12.958 7.70938C12.9873 7.82423 12.9173 8.26329 12.7728 7.92506ZM3.96621 13.6071C5.15792 12.8589 2.70104 12.9578 3.96621 13.6071ZM4.84799 13.8571C5.26596 13.4021 3.93886 13.6725 4.84799 13.8571ZM2.2509 11.9692C2.93161 11.4326 1.44445 11.7654 2.2509 11.9692ZM37.4474 34.5349C37.4673 33.9123 36.9268 34.8149 37.4474 34.5349ZM33.871 32.033C33.9726 31.3172 33.4112 32.0953 33.871 32.033ZM38.4308 34.7764C39.3828 34.7797 41.3159 34.4726 39.2445 34.4737C38.9188 34.5253 37.3501 34.5146 38.4308 34.7764ZM5.62307 13.418C6.39386 13.3645 6.82845 12.5476 5.4732 12.5938C3.37344 12.3718 7.32578 13.3312 5.20403 13.0565C4.91931 13.2496 5.60618 13.4719 5.62307 13.418ZM6.30163 13.7703C6.22093 13.2636 6.06276 14.0396 6.30163 13.7703ZM7.10701 11.57C7.44106 11.145 6.644 11.4563 7.10701 11.57ZM4.54316 7.17909C5.91932 6.70046 7.80032 6.16166 8.44966 7.41539C7.78879 6.60072 8.18263 5.79788 8.80677 6.99033C9.68962 8.1957 10.1315 6.44191 9.55745 6.03719C10.2122 6.86999 10.9556 7.26399 9.99526 6.08995C11.0395 4.80298 7.90595 6.25838 7.19387 6.24326C6.85151 6.40097 3.65628 7.07826 4.54316 7.17909ZM5.34961 5.5973C6.13407 4.99091 8.06305 5.95889 6.82523 4.99393C6.70378 4.88458 4.115 5.72589 5.34961 5.5973ZM8.20971 5.71847C9.12715 5.7421 7.81399 4.45403 8.9073 5.0379C8.72821 4.437 7.63383 4.32435 7.0987 4.08393C6.79601 4.63345 7.71426 5.72589 8.20971 5.71847ZM5.85122 3.05771C6.16865 2.61672 5.29411 3.28219 5.85122 3.05771ZM7.02014 3.34428C8.49979 3.14371 6.64293 2.69173 6.72148 3.32834L7.02014 3.34428ZM4.83754 1.59489C3.79543 0.200762 6.79708 1.82898 5.73809 0.36919C4.84692 -0.357273 3.99141 1.18825 4.83754 1.59489ZM18.2058 8.97382C18.6836 8.1064 16.234 7.80389 17.8844 8.66664C18.0361 8.71829 18.0018 9.03372 18.2058 8.97382Z" fill="white"/>
<path d="M8.50552 41.2788C8.39995 41.7066 8.33438 42.4243 8.30981 43.4317C8.30981 43.6297 8.22283 43.7288 8.04854 43.7288C7.87408 43.7288 7.75274 43.6423 7.68402 43.4702C7.49728 43.0044 7.32033 42.6795 7.15169 42.4941C6.95266 42.2775 6.68807 42.1465 6.35808 42.1019C6.00335 42.0443 5.11961 42.0157 3.70669 42.0157C3.38317 42.0157 3.1712 42.0509 3.07194 42.1213C3.00969 42.1657 2.97865 42.2615 2.97865 42.4083V46.743C2.97865 46.8898 3.06878 46.9596 3.24889 46.9536C3.8033 46.947 4.60604 46.9084 5.65776 46.8386C5.86326 46.8128 6.00203 46.7444 6.0734 46.6326C6.14544 46.521 6.21549 46.2327 6.28355 45.7667C6.32687 45.5115 6.47344 45.4125 6.72243 45.4704C6.93391 45.515 7.0247 45.614 6.9935 45.7667C6.81904 46.6346 6.7626 47.7637 6.82485 49.1544C6.83149 49.3199 6.72891 49.4095 6.51693 49.4223C6.34248 49.4415 6.23359 49.3458 6.1901 49.1352C6.02875 48.3378 5.72781 47.9119 5.28942 47.8573C4.85054 47.8035 4.13595 47.7763 3.14647 47.7763C3.03442 47.7763 2.97865 47.8174 2.97865 47.9005V52.2066C2.97865 52.5255 3.09335 52.7428 3.32358 52.8571C3.50451 52.9529 3.89343 53.0391 4.49067 53.1157C4.7961 53.1475 4.92955 53.2851 4.8927 53.527C4.85502 53.7376 4.58147 53.8206 4.07055 53.776C2.59538 53.6546 1.37832 53.6612 0.420051 53.7954C0.15214 53.8332 0.0186827 53.7216 0.0186827 53.4605C0.0186827 53.2943 0.15214 53.1987 0.420051 53.1733C1.03007 53.1029 1.33483 52.5541 1.33483 51.5275V43.336C1.33483 42.9154 1.26163 42.5917 1.11572 42.3651C0.969152 42.1385 0.69676 41.9325 0.298711 41.7478C0.0497232 41.6329 -0.0435642 41.4768 0.0186827 41.2788C0.0497232 41.1578 0.0996868 41.0906 0.167743 41.078C0.22999 41.0588 0.395318 41.0714 0.662399 41.1165C1.0548 41.1803 1.97938 41.2122 3.43563 41.2122C5.15397 41.2122 6.63811 41.1736 7.88969 41.0973C8.30649 41.0714 8.51531 41.1066 8.51531 41.2022C8.51531 41.2282 8.51216 41.2534 8.50552 41.2788Z" fill="white"/>
<path d="M14.5606 53.4259C14.5606 53.681 14.4205 53.7926 14.1405 53.7606C13.282 53.6776 12.2173 53.6902 10.9476 53.7986C10.6922 53.8244 10.5353 53.8178 10.4757 53.78C10.4166 53.7414 10.3874 53.6365 10.3874 53.4636C10.3874 53.3109 10.5567 53.1819 10.8959 53.0763C11.2356 52.9713 11.4048 52.6569 11.4048 52.134V43.4742C11.4048 42.9572 11.3316 42.5777 11.1857 42.3351C11.0391 42.0927 10.7823 41.9045 10.4153 41.771C10.2221 41.7006 10.1255 41.6016 10.1255 41.474C10.1255 41.2826 10.2656 41.139 10.5456 41.0434C10.9691 40.9031 11.4081 40.6865 11.8626 40.3927C12.2361 40.1629 12.4728 40.0486 12.5719 40.0486C12.8021 40.0486 12.9176 40.2107 12.9176 40.5363C12.9176 40.5111 12.9052 40.8301 12.88 41.4932C12.8619 42.1245 12.8554 42.7464 12.8619 43.3592L12.8987 51.904C12.8987 52.2934 12.9922 52.576 13.1789 52.7514C13.3657 52.9267 13.6865 53.0431 14.1405 53.1003C14.4205 53.1321 14.5606 53.2404 14.5606 53.4259Z" fill="white"/>
<path d="M23.0055 52.8615C23.0055 52.9957 22.7674 53.1978 22.2915 53.4688C21.815 53.74 21.4337 53.8756 21.1477 53.8756C20.9045 53.8756 20.6901 53.7546 20.5033 53.512C20.3166 53.2696 20.1854 53.1487 20.1109 53.1487C20.0551 53.1487 19.7595 53.2795 19.2238 53.5406C18.689 53.8024 18.1502 53.9334 17.6087 53.9334C17.0985 53.9334 16.6717 53.7799 16.3294 53.4743C15.956 53.1359 15.7692 52.6768 15.7692 52.096C15.7692 50.9923 17.0019 50.2014 19.467 49.7231C19.8898 49.64 20.1051 49.4645 20.1109 49.1967L20.1298 48.5841C20.1673 47.5381 19.716 47.0152 18.7758 47.0152C18.5081 47.0152 18.2546 47.2603 18.0146 47.7514C17.7754 48.2432 17.4311 48.5076 16.983 48.5462C16.4727 48.5967 16.2172 48.3768 16.2172 47.8857C16.2172 47.5793 16.5972 47.2226 17.3564 46.8138C18.1534 46.3866 18.9193 46.1726 19.6538 46.1726C20.917 46.1726 21.5426 46.7886 21.5303 48.0199L21.4926 51.9618C21.4868 52.3765 21.6581 52.5837 22.0062 52.5837C22.0749 52.5837 22.2059 52.5679 22.3984 52.5359C22.5918 52.5041 22.7039 52.4881 22.7351 52.4881C22.9153 52.4881 23.0055 52.613 23.0055 52.8615ZM20.1298 50.68C20.1363 50.5204 20.1 50.4147 20.0221 50.3642C19.9443 50.3132 19.8218 50.3032 19.6538 50.3351C18.1534 50.6095 17.4033 51.1105 17.4033 51.8376C17.4033 52.5711 17.7922 52.9379 18.5703 52.9379C18.8816 52.9379 19.2026 52.8775 19.5319 52.7565C19.9184 52.6157 20.1109 52.4469 20.1109 52.2489L20.1298 50.68Z" fill="white"/>
<path d="M29.9473 51.7605C29.9473 52.4369 29.693 52.9746 29.186 53.3732C28.6789 53.772 27.9864 53.9713 27.1085 53.9713C26.5237 53.9713 25.9381 53.9075 25.3533 53.78C24.8488 53.665 24.5564 53.56 24.4753 53.4642C24.4254 53.3746 24.4008 52.9381 24.4008 52.1531C24.4008 51.815 24.4753 51.6396 24.6251 51.627C24.7743 51.6076 24.9019 51.6908 25.0077 51.8755C25.4745 52.7115 26.2279 53.1294 27.2673 53.1294C28.1446 53.1294 28.5836 52.8164 28.5836 52.1911C28.5836 51.9174 28.4844 51.6874 28.2847 51.5026C28.0667 51.292 27.6441 51.0462 27.0152 50.7657C26.1061 50.3511 25.4992 49.9876 25.1944 49.6746C24.8643 49.343 24.6996 48.8965 24.6996 48.3349C24.6996 47.6458 24.9577 47.1103 25.4745 46.7275C25.9537 46.3574 26.5949 46.1726 27.3976 46.1726C27.9021 46.1726 28.3625 46.2138 28.78 46.297C29.2282 46.38 29.4616 46.4817 29.4803 46.6032C29.5296 46.9601 29.6327 47.477 29.7884 48.1536C29.8072 48.2359 29.7195 48.3031 29.527 48.3542C29.3215 48.3987 29.1847 48.3635 29.116 48.2492C28.6245 47.4258 28.002 47.0145 27.2486 47.0145C26.3959 47.0145 25.9693 47.295 25.9693 47.8566C25.9693 48.1694 26.0846 48.4179 26.3149 48.6027C26.5204 48.7623 27.0027 49.0115 27.7622 49.3497C28.5589 49.7004 29.1004 50.0162 29.387 50.2965C29.7605 50.6601 29.9473 51.1485 29.9473 51.7605Z" fill="white"/>
<path d="M40.9319 53.4352C40.9319 53.6584 40.7854 53.7768 40.4929 53.7894C40.0572 53.796 39.4871 53.8278 38.7843 53.885C38.4356 53.9554 38.1866 53.911 38.0374 53.7515C37.0537 52.667 36.2193 51.5313 35.5345 50.3446C35.4788 50.2429 35.4074 50.1917 35.3199 50.1917C35.2142 50.1917 35.0308 50.2874 34.7695 50.4788C34.4763 50.6443 34.3304 50.8808 34.3304 51.1865C34.3304 51.4037 34.3362 51.716 34.3492 52.1248C34.3616 52.5328 34.4607 52.8005 34.6475 52.9281C34.7784 53.0179 35.0807 53.0877 35.5533 53.1389C35.8458 53.1773 35.9923 53.2889 35.9923 53.4737C35.9923 53.6206 35.9689 53.7117 35.9223 53.7462C35.8757 53.7814 35.7523 53.7894 35.5533 53.7702C34.9308 53.713 33.8791 53.7448 32.3976 53.8658C32.0241 53.8978 31.8218 53.8498 31.7906 53.7222C31.7783 53.6778 31.7718 53.614 31.7718 53.5308C31.7718 53.3335 31.9619 53.1833 32.3419 53.0817C32.6841 52.9919 32.8553 52.5806 32.8553 51.847V43.4835C32.8553 42.9606 32.8055 42.5971 32.7055 42.3931C32.5688 42.1313 32.2821 41.9272 31.8464 41.7803C31.6415 41.7106 31.5385 41.6116 31.5385 41.484C31.5385 41.2986 31.685 41.155 31.9773 41.0534C32.4443 40.8939 32.889 40.6739 33.3124 40.3929C33.6548 40.1636 33.8668 40.0486 33.9472 40.0486C34.2028 40.0486 34.3304 40.2141 34.3304 40.5463C34.3304 40.5013 34.3273 40.8175 34.3206 41.4934C34.3148 41.9591 34.3117 42.5845 34.3117 43.3692L34.3304 49.3591C34.3304 49.5251 34.3739 49.6076 34.4607 49.6076C34.5542 49.6076 34.6974 49.5251 34.8907 49.3591C35.4074 48.9444 36.0423 48.4022 36.7951 47.7323C36.9448 47.5729 37.0193 47.4453 37.0193 47.3496C37.0193 47.1776 36.7672 47.0559 36.2634 46.9862C36.0455 46.9602 35.9424 46.836 35.9547 46.6126C35.9734 46.3894 36.0825 46.2937 36.2815 46.3256C36.7302 46.3894 37.3839 46.4246 38.2422 46.4313C38.8401 46.4372 39.4347 46.4406 40.0261 46.4406C40.2187 46.4473 40.3153 46.5648 40.3153 46.7948C40.3153 47.0114 40.1629 47.1296 39.8581 47.149C39.3782 47.1675 38.9269 47.2791 38.5043 47.4838C37.9129 47.7577 37.2806 48.2394 36.6083 48.9286C36.559 48.967 36.5336 49.0148 36.5336 49.072C36.5336 49.1611 36.6394 49.3751 36.8515 49.7133C37.6295 50.9254 38.3642 51.8404 39.0547 52.4596C39.4969 52.8485 39.9106 53.0431 40.2963 53.0431C40.583 53.0431 40.7606 53.0637 40.8287 53.1055C40.8976 53.1469 40.9319 53.2571 40.9319 53.4352Z" fill="white"/>
</g>
<defs>
<clipPath id="clip0_775_314">
<rect width="41" height="54" fill="white"/>
</clipPath>
</defs>
</svg>
