<svg width="48" height="78" viewBox="0 0 48 78" fill="none" xmlns="http://www.w3.org/2000/svg">
<path d="M40.9539 0.365479H7.24999C3.3873 0.365479 0.244751 3.50803 0.244751 7.37072C0.244751 10.6531 0.244751 68.3368 0.244751 70.1166C0.244751 73.9793 3.3873 77.1219 7.24999 77.1219H40.9539C44.8166 77.1219 47.9591 73.9793 47.9591 70.1166C47.9591 66.8341 47.9591 9.15051 47.9591 7.37072C47.9591 3.50803 44.8166 0.365479 40.9539 0.365479ZM43.289 70.1166C43.289 71.4042 42.2415 72.4517 40.9539 72.4517H7.24999C5.96243 72.4517 4.91491 71.4042 4.91491 70.1166V64.7604H43.289V70.1166ZM43.289 60.0903H4.91491V17.3971H43.289V60.0903ZM43.289 12.7269H4.91491V7.37072C4.91491 6.08315 5.96243 5.03564 7.24999 5.03564H40.9539C42.2415 5.03564 43.289 6.08315 43.289 7.37072V12.7269Z" fill="white"/>
<path d="M19.6263 71.0456H28.5774C29.867 71.0456 30.9125 70.0001 30.9125 68.7105C30.9125 67.4209 29.867 66.3754 28.5774 66.3754H19.6263C18.3367 66.3754 17.2912 67.4209 17.2912 68.7105C17.2912 70.0001 18.3367 71.0456 19.6263 71.0456Z" fill="white"/>
<path d="M32.5471 6.44177H23.5959C22.3064 6.44177 21.2609 7.48727 21.2609 8.77685C21.2609 10.0664 22.3064 11.1119 23.5959 11.1119H32.5471C33.8367 11.1119 34.8822 10.0664 34.8822 8.77685C34.8822 7.48727 33.8367 6.44177 32.5471 6.44177Z" fill="white"/>
<path d="M16.7075 6.44174H15.6567C14.3671 6.44174 13.3216 7.48723 13.3216 8.77682C13.3216 10.0664 14.3671 11.1119 15.6567 11.1119H16.7075C17.997 11.1119 19.0425 10.0664 19.0425 8.77682C19.0425 7.48723 17.997 6.44174 16.7075 6.44174Z" fill="white"/>
</svg>
