<svg width="56" height="55" viewBox="0 0 56 55" fill="none" xmlns="http://www.w3.org/2000/svg">
<path d="M51.4089 0.102783L4.42707 0.102783C2.02578 0.105564 0.0797319 2.01965 0.0769043 4.3815L0.0769043 50.5916C0.0797319 52.9535 2.02578 54.8676 4.42707 54.8703H51.4089C53.8102 54.8676 55.7562 52.9535 55.759 50.5916V4.3815C55.7562 2.01965 53.8102 0.105564 51.4089 0.102783ZM54.019 50.5916C54.019 52.0095 52.8504 53.1588 51.4089 53.1588H4.42707C2.98553 53.1588 1.81697 52.0095 1.81697 50.5916L1.81697 4.3815C1.81697 2.96364 2.98553 1.81427 4.42707 1.81427L51.4089 1.81427C52.8504 1.81427 54.019 2.96364 54.019 4.3815V50.5916Z" fill="white"/>
<path d="M6.16709 4.38126C6.14306 4.38073 6.11902 4.38073 6.09499 4.38126C5.15394 4.40084 4.40712 5.16715 4.42702 6.09275L4.42702 9.51572H6.16709V6.09275H10.5173V4.38126L6.16709 4.38126Z" fill="white"/>
<path d="M46.1888 8.66003L9.64738 8.66003C9.1669 8.66003 8.77734 9.04319 8.77734 9.51578V19.7847C8.77734 20.2573 9.1669 20.6404 9.64738 20.6404H46.1888C46.6693 20.6404 47.0588 20.2573 47.0588 19.7847V9.51578C47.0588 9.04319 46.6693 8.66003 46.1888 8.66003ZM45.3187 18.929H10.5174V10.3715L45.3187 10.3715V18.929Z" fill="white"/>
<path d="M23.5679 23.2078H9.64738C9.1669 23.2078 8.77734 23.5909 8.77734 24.0635V37.7554C8.77734 38.228 9.1669 38.6111 9.64738 38.6111H23.5679C24.0484 38.6111 24.4379 38.228 24.4379 37.7554V24.0635C24.4379 23.5909 24.0484 23.2078 23.5679 23.2078ZM10.5174 36.8997V26.1293L21.4676 36.8997H10.5174ZM22.6979 35.6893L11.748 24.9192H22.6979V35.6893Z" fill="white"/>
<path d="M46.1886 23.2076H27.0479C26.5674 23.2076 26.1779 23.5908 26.1779 24.0634V29.1978C26.1779 29.6704 26.5674 30.0536 27.0479 30.0536H46.1886C46.6691 30.0536 47.0587 29.6704 47.0587 29.1978V24.0634C47.0587 23.5908 46.6691 23.2076 46.1886 23.2076ZM45.3186 28.3421H27.9179V24.9191H45.3186V28.3421Z" fill="white"/>
<path d="M47.0587 32.6208H26.1779V34.3323H47.0587V32.6208Z" fill="white"/>
<path d="M47.0589 36.8995H26.1781V38.611H47.0589V36.8995Z" fill="white"/>
<path d="M47.0586 41.1782H15.7374V42.8897H47.0586V41.1782Z" fill="white"/>
<path d="M40.0984 45.457H8.77722V47.1685H40.0984V45.457Z" fill="white"/>
<path d="M10.5173 41.1783H8.77722V42.8898H10.5173V41.1783Z" fill="white"/>
<path d="M13.9973 41.1781H12.2572V42.8896H13.9973V41.1781Z" fill="white"/>
</svg>
