<svg width="40" height="40" viewBox="0 0 40 40" fill="none" xmlns="http://www.w3.org/2000/svg">
<path d="M38.0339 5.20169L34.8046 1.97179C33.4691 0.636232 31.2957 0.636232 29.9603 1.97179C28.8095 3.12267 20.7793 11.1536 19.5503 12.3827L12.4829 5.3147C12.3711 5.20259 12.2379 5.11634 12.0839 5.05568L1.61349 1.04395C1.19303 0.882765 0.716358 0.984173 0.397885 1.30297C0.079115 1.62177 -0.0222849 2.09818 0.138884 2.51898L4.15028 12.9902C4.15117 12.9923 4.15206 12.9944 4.15295 12.9965C4.20588 13.1321 4.29063 13.2707 4.40898 13.3893L11.4763 20.4573C9.9714 21.9623 2.22516 29.7092 1.06665 30.8678C-0.272068 32.2067 -0.272365 34.3737 1.06665 35.7125L4.29598 38.9424C5.63143 40.278 7.80484 40.2783 9.14058 38.9424L19.5503 28.5319L29.9603 38.9424C31.2957 40.278 33.4691 40.2783 34.8046 38.9424L38.0342 35.7128C39.3729 34.3737 39.3732 32.207 38.0342 30.8678L27.6242 20.4573L38.0342 10.0464C39.3729 8.70757 39.3729 6.54082 38.0339 5.20169ZM3.18713 4.09274L9.62409 6.55896L5.65314 10.5299L3.18713 4.09274ZM7.52561 37.3276C7.08047 37.7728 6.3561 37.7728 5.91095 37.3276L2.68132 34.0977C2.23498 33.6514 2.23498 32.9293 2.68132 32.4829L3.35454 31.8097L5.77654 34.2322C6.22228 34.6779 6.94546 34.6779 7.39121 34.2322C7.83725 33.7861 7.83725 33.0631 7.39121 32.6171L4.96921 30.1949L6.58387 28.5798L7.3915 29.3875C7.83725 29.8332 8.56013 29.8332 9.00617 29.3875C9.45221 28.9414 9.45221 28.2184 9.00617 27.7724L8.19884 26.965L9.8135 25.3501L12.2358 27.7727C12.6815 28.2184 13.4044 28.2184 13.8505 27.7727C14.2965 27.3266 14.2965 26.6036 13.8505 26.1576L11.4282 23.7353L13.091 22.0721L17.9356 26.9171L7.52561 37.3276ZM6.83128 12.5816L8.44594 10.9668L29.9347 32.4571L28.32 34.0722L6.83128 12.5816ZM36.4192 32.4829C36.8656 32.9293 36.8656 33.6514 36.4192 34.0977L33.1899 37.3276C32.7447 37.7728 32.0204 37.7728 31.5749 37.3276L29.9347 35.687C30.3724 35.2492 34.2803 31.341 34.779 30.8423L36.4192 32.4829ZM33.1643 29.2275L31.5494 30.8423L10.0609 9.352L11.6756 7.7369L33.1643 29.2275ZM36.4192 8.4316L26.0095 18.8422L21.1652 13.9975L22.7317 12.4305L25.154 14.853C25.5998 15.2991 26.323 15.2991 26.7687 14.853C27.2147 14.407 27.2147 13.684 26.7687 13.2382L24.3467 10.8157L25.9614 9.20093L26.7687 10.0083C27.2147 10.4541 27.9376 10.4541 28.3837 10.0083C28.8294 9.56225 28.8294 8.83931 28.3837 8.39323L27.5763 7.58583L29.191 5.97103L31.613 8.39323C32.059 8.83931 32.7819 8.83931 33.228 8.39323C33.6737 7.94745 33.6737 7.22451 33.228 6.77843L30.8057 4.35623L31.5749 3.58659C32.0204 3.14141 32.7447 3.14141 33.1899 3.58659L36.4195 6.8165C36.8656 7.26287 36.8656 7.98522 36.4192 8.4316Z" fill="white"/>
</svg>
