<svg width="50" height="51" viewBox="0 0 50 51" fill="none" xmlns="http://www.w3.org/2000/svg">
<path d="M38.1729 38.594H36.5151V41.9097H21.5944V43.5676H36.5151V46.0543C36.5151 47.4277 35.4016 48.5411 34.0283 48.5411H15.7919C14.9034 48.5399 14.0826 48.0664 13.6366 47.2977L12.2009 48.1267C12.944 49.4069 14.3117 50.1961 15.7919 50.199H34.0283C36.3163 50.1961 38.1701 48.3424 38.1729 46.0543V38.594Z" fill="white"/>
<path d="M24.0812 45.2253H25.7391V46.8832H24.0812V45.2253Z" fill="white"/>
<path d="M29.0548 22.8444V21.1866L26.5259 21.1866C26.1127 15.8969 21.9106 11.6948 16.6209 11.2815V8.75265L14.963 8.75265V11.2815C14.4045 11.3244 13.8504 11.411 13.3052 11.5402V7.0948L26.568 7.0948V5.43694L13.3052 5.43694V4.60802C13.3052 3.2347 14.4186 2.12123 15.792 2.12123L34.0284 2.12123C34.6339 2.12123 35.2187 2.34223 35.6729 2.74293L36.7697 1.49954C36.0128 0.831297 35.0378 0.462974 34.0284 0.463379L15.792 0.463379C13.5039 0.466212 11.6501 2.31997 11.6473 4.60802V12.0684C7.91471 13.6319 5.37086 17.152 5.05799 21.1866H2.52911L2.52911 22.8444H5.06001C5.451 28.1442 9.66323 32.3593 14.963 32.7535V35.2783H16.6209V32.7535C21.9207 32.3593 26.1329 28.1442 26.5239 22.8444L29.0548 22.8444ZM14.963 29.4758V31.0956C13.8067 30.9916 12.6815 30.6666 11.6473 30.1388V28.6469C11.6473 26.3581 13.5031 24.5023 15.792 24.5023C18.0808 24.5023 19.9366 26.3581 19.9366 28.6469V30.1388C18.9029 30.6674 17.7772 30.9928 16.6209 31.0981V29.4758H14.963ZM13.3052 20.3576C13.3052 18.9843 14.4186 17.8709 15.792 17.8709C17.1653 17.8709 18.2787 18.9843 18.2787 20.3576C18.2787 21.731 17.1653 22.8444 15.792 22.8444C14.4186 22.8444 13.3052 21.731 13.3052 20.3576ZM21.8705 28.8129C21.781 28.8954 21.6855 28.9618 21.5944 29.0383V28.6469C21.5924 26.4815 20.3846 24.4974 18.4621 23.5009C19.7937 22.3794 20.2822 20.545 19.6852 18.9098C19.0882 17.2743 17.5328 16.1863 15.792 16.1863C14.0511 16.1863 12.4957 17.2743 11.8987 18.9098C11.3017 20.545 11.7902 22.3794 13.1218 23.5009C11.1993 24.4974 9.99148 26.4815 9.98946 28.6469V29.0424C9.89758 28.9671 9.80206 28.8962 9.71342 28.8169C7.99566 27.2764 6.9251 25.1426 6.71787 22.8444H8.33161V21.1866H6.71584C7.121 16.8104 10.5869 13.3445 14.963 12.9394L14.963 14.5551L16.6209 14.5551V12.9394C20.997 13.3445 24.4629 16.8104 24.8681 21.1866H23.2523V22.8444H24.866C24.6588 25.1426 23.5882 27.2764 21.8705 28.8169V28.8129Z" fill="white"/>
<path d="M47.2911 15.384C47.7489 15.384 48.12 15.0129 48.12 14.5551V4.60798C48.12 4.15021 47.7489 3.77905 47.2911 3.77905L29.0547 3.77905C28.5969 3.77905 28.2258 4.15021 28.2258 4.60798V14.5551C28.2258 15.0129 28.5969 15.384 29.0547 15.384L47.2911 15.384ZM29.8836 5.43691L46.4622 5.43691V13.7262L29.8836 13.7262V5.43691Z" fill="white"/>
<path d="M31.5414 7.09473H34.8572V8.75258H31.5414V7.09473Z" fill="white"/>
<path d="M36.515 7.09473L44.8043 7.09473V8.75258H36.515V7.09473Z" fill="white"/>
<path d="M31.5414 10.4105L44.8042 10.4105V12.0684H31.5414V10.4105Z" fill="white"/>
<path d="M47.1446 17.0419C46.5026 17.0431 45.8834 17.2786 45.4037 17.7049L38.1729 24.0797V17.0419H36.515V25.3311H36.7546L32.0389 29.4924C28.9709 29.668 26.5715 32.205 26.5679 35.2783V36.7406C26.5711 37.5631 26.1061 38.3163 25.3686 38.681C25.0242 38.8526 24.8432 39.2388 24.9315 39.6131C25.0197 39.9875 25.354 40.2522 25.739 40.2518H31.5415C34.6147 40.2482 37.1517 37.8488 37.3273 34.7808L49.1197 21.4168C49.8042 20.6405 49.9705 19.5351 49.5443 18.5917C49.1185 17.6482 48.1795 17.0419 47.1446 17.0419ZM31.5415 38.594H27.7506C28.0634 38.0265 28.227 37.3886 28.2257 36.7406V35.2783C28.2286 33.1189 29.8864 31.3223 32.0389 31.147L35.6727 34.7808C35.4979 36.9333 33.7008 38.5916 31.5415 38.594ZM47.8763 20.3203L36.4778 33.2391L33.5806 30.3428L46.4994 18.9434C46.8859 18.6042 47.4692 18.6232 47.833 18.9867C48.1965 19.3506 48.2155 19.9338 47.8763 20.3203Z" fill="white"/>
<path d="M0.871164 46.0544H19.1076C19.5653 46.0544 19.9365 45.6832 19.9365 45.2255V38.594C19.9365 38.1363 19.5653 37.7651 19.1076 37.7651H13.3051V33.6205H11.6472V37.7651H0.871164C0.413392 37.7651 0.0422363 38.1363 0.0422363 38.594L0.0422363 45.2255C0.0422363 45.6832 0.413392 46.0544 0.871164 46.0544ZM1.70009 39.423H18.2786V44.3965H1.70009L1.70009 39.423Z" fill="white"/>
<path d="M3.35797 41.0807H7.50261V42.7385H3.35797V41.0807Z" fill="white"/>
<path d="M9.16052 41.0808H16.6209V42.7387H9.16052V41.0808Z" fill="white"/>
<path d="M0.871164 12.0682H9.16044C9.61821 12.0682 9.98937 11.697 9.98937 11.2393V4.60786C9.98937 4.15009 9.61821 3.77893 9.16044 3.77893L0.871164 3.77893C0.413392 3.77893 0.0422363 4.15009 0.0422363 4.60786L0.0422363 11.2393C0.0422363 11.697 0.413392 12.0682 0.871164 12.0682ZM1.70009 5.43679L8.33151 5.43679V10.4103H1.70009L1.70009 5.43679Z" fill="white"/>
<path d="M3.35791 7.09473H6.67362V8.75258H3.35791V7.09473Z" fill="white"/>
</svg>
