<svg width="82" height="61" viewBox="0 0 82 61" fill="none" xmlns="http://www.w3.org/2000/svg">
<path d="M74.4089 0.888672L7.76513 0.888672C3.98519 0.888672 0.909912 3.75747 0.909912 7.28362L0.909912 53.9105C0.909912 57.4367 3.98519 60.3055 7.76513 60.3055L74.4089 60.3055C78.1888 60.3055 81.2641 57.4367 81.2641 53.9105V7.28362C81.2641 3.75747 78.1888 0.888672 74.4089 0.888672ZM78.6609 53.9105C78.6609 56.0977 76.7534 57.8771 74.4089 57.8771L7.76513 57.8771C5.42058 57.8771 3.51311 56.0977 3.51311 53.9105L3.51311 7.28362C3.51311 5.09649 5.42058 3.31708 7.76513 3.31708L74.4089 3.31708C76.7534 3.31708 78.6609 5.09649 78.6609 7.28362V53.9105Z" fill="white"/>
<path d="M71.632 35.6969C72.3508 35.6969 72.9337 35.1533 72.9337 34.4826V26.7114C72.9337 26.0409 72.351 25.4971 71.632 25.4971H59.0495V20.1545H63.3015C64.0203 20.1545 64.6032 19.6109 64.6032 18.9403V11.1691C64.6032 10.4986 64.0205 9.95483 63.3015 9.95483L18.8726 9.95483C18.1538 9.95483 17.5709 10.4984 17.5709 11.1691V18.9403C17.5709 19.6108 18.1536 20.1545 18.8726 20.1545H23.1246V25.4971H10.5421C9.8233 25.4971 9.24042 26.0407 9.24042 26.7114V34.4826C9.24042 35.1531 9.82314 35.6969 10.5421 35.6969H14.7941V41.0395H10.5421C9.8233 41.0395 9.24042 41.5831 9.24042 42.2537V50.0249C9.24042 50.6954 9.82314 51.2392 10.5421 51.2392H21.6493C22.3681 51.2392 22.951 50.6956 22.951 50.0249V42.2537C22.951 41.5832 22.3683 41.0395 21.6493 41.0395H17.3973V35.6969H31.4549V41.0395H27.2029C26.4841 41.0395 25.9012 41.5831 25.9012 42.2537V50.0249C25.9012 50.6954 26.4839 51.2392 27.2029 51.2392H38.3101C39.0289 51.2392 39.6118 50.6956 39.6118 50.0249V42.2537C39.6118 41.5832 39.0291 41.0395 38.3101 41.0395H34.0581V35.6969H38.3101C39.0289 35.6969 39.6118 35.1533 39.6118 34.4826V26.7114C39.6118 26.0409 39.0291 25.4971 38.3101 25.4971H25.7276V20.1545H56.4461V25.4971H43.8637C43.1449 25.4971 42.562 26.0407 42.562 26.7114V34.4826C42.562 35.1531 43.1447 35.6969 43.8637 35.6969H48.1157V41.0395H43.8637C43.1449 41.0395 42.562 41.5831 42.562 42.2537V50.0249C42.562 50.6954 43.1447 51.2392 43.8637 51.2392H54.9709C55.6897 51.2392 56.2726 50.6956 56.2726 50.0249V42.2537C56.2726 41.5832 55.6898 41.0395 54.9709 41.0395H50.7189V35.6969H64.7765V41.0395H60.5244C59.8056 41.0395 59.2228 41.5831 59.2228 42.2537V50.0249C59.2228 50.6954 59.8055 51.2392 60.5244 51.2392H71.6317C72.3505 51.2392 72.9334 50.6956 72.9334 50.0249V42.2537C72.9334 41.5832 72.3506 41.0395 71.6317 41.0395H67.3797V35.6969H71.632ZM20.3477 43.468V48.8106H11.8436V43.468H20.3477ZM37.0086 43.468V48.8106H28.5046V43.468H37.0086ZM37.0086 27.9257V33.2683H11.8436V27.9257H37.0086ZM20.1741 17.726V12.3834L61.9999 12.3834V17.726L20.1741 17.726ZM53.6695 43.468V48.8106H45.1655V43.468H53.6695ZM70.3305 43.468V48.8106H61.8264V43.468H70.3305ZM45.1655 33.2683V27.9257H70.3305V33.2683H45.1655Z" fill="white"/>
</svg>
